<svg width="49" height="49" viewBox="0 0 49 49" fill="none" xmlns="http://www.w3.org/2000/svg">
<g clip-path="url(#clip0_98_5622)">
<path d="M48.2671 30.4248C44.9937 43.5568 31.6888 51.5396 18.5756 48.2659C5.44318 44.9925 -2.5396 31.6882 0.734017 18.5752C4.00745 5.44319 17.293 -2.5396 30.4253 0.734018C43.5386 3.98831 51.5407 17.2926 48.2671 30.4248Z" fill="url(#paint0_linear_98_5622)"/>
<path d="M36.1652 21.4471C36.6438 18.1932 34.1746 16.4323 30.7676 15.2647L31.8777 10.8432L29.198 10.1733L28.1262 14.4799C27.418 14.3077 26.6906 14.1354 25.9633 13.9823L27.0352 9.65649L24.3555 8.98657L23.2645 13.3889C22.6711 13.2549 22.0969 13.1209 21.5418 12.987V12.9678L17.8285 12.0491L17.1203 14.9202C17.1203 14.9202 19.1109 15.3795 19.0727 15.3987C20.1637 15.6666 20.3551 16.394 20.3168 16.9682L19.0535 22.0022C19.1301 22.0213 19.2258 22.0405 19.3406 22.0979C19.2449 22.0788 19.1492 22.0596 19.0535 22.0213L17.2926 29.0651C17.1586 29.3905 16.8141 29.8881 16.0676 29.6967C16.0867 29.735 14.1152 29.2182 14.1152 29.2182L12.7754 32.2999L16.2781 33.1803C16.9289 33.3526 17.5605 33.5057 18.1922 33.678L17.082 38.1377L19.7617 38.8077L20.8719 34.3862C21.5992 34.5776 22.3266 34.769 23.0156 34.9413L21.9246 39.3436L24.6043 40.0135L25.7145 35.5538C30.3082 36.4151 33.7535 36.0706 35.1891 31.917C36.3566 28.5866 35.1316 26.6534 32.7199 25.3901C34.5 24.9881 35.8207 23.8206 36.1652 21.4471ZM30.0211 30.0604C29.198 33.3909 23.5707 31.5917 21.7523 31.1323L23.2262 25.2178C25.0445 25.6772 30.9016 26.5768 30.0211 30.0604ZM30.8633 21.3897C30.0977 24.4331 25.4273 22.8827 23.9152 22.4999L25.2551 17.1405C26.7672 17.5233 31.648 18.2315 30.8633 21.3897Z" fill="white"/>
</g>
<defs>
<linearGradient id="paint0_linear_98_5622" x1="2448.68" y1="-1.176" x2="2448.68" y2="4899.51" gradientUnits="userSpaceOnUse">
<stop stop-color="#F9AA4B"/>
<stop offset="1" stop-color="#F7931A"/>
</linearGradient>
<clipPath id="clip0_98_5622">
<rect width="49" height="49" fill="white"/>
</clipPath>
</defs>
</svg>
