<svg width="53" height="53" viewBox="0 0 53 53" fill="none" xmlns="http://www.w3.org/2000/svg">
<path d="M44.1665 8.83337H8.83317C6.404 8.83337 4.4165 10.8209 4.4165 13.25V39.75C4.4165 42.1792 6.404 44.1667 8.83317 44.1667H44.1665C46.5957 44.1667 48.5832 42.1792 48.5832 39.75V13.25C48.5832 10.8209 46.5957 8.83337 44.1665 8.83337ZM11.0415 26.5H15.4582C16.6728 26.5 17.6665 27.4938 17.6665 28.7084C17.6665 29.923 16.6728 30.9167 15.4582 30.9167H11.0415C9.82692 30.9167 8.83317 29.923 8.83317 28.7084C8.83317 27.4938 9.82692 26.5 11.0415 26.5ZM28.7082 39.75H11.0415C9.82692 39.75 8.83317 38.7563 8.83317 37.5417C8.83317 36.3271 9.82692 35.3334 11.0415 35.3334H28.7082C29.9228 35.3334 30.9165 36.3271 30.9165 37.5417C30.9165 38.7563 29.9228 39.75 28.7082 39.75ZM41.9582 39.75H37.5415C36.3269 39.75 35.3332 38.7563 35.3332 37.5417C35.3332 36.3271 36.3269 35.3334 37.5415 35.3334H41.9582C43.1728 35.3334 44.1665 36.3271 44.1665 37.5417C44.1665 38.7563 43.1728 39.75 41.9582 39.75ZM41.9582 30.9167H24.2915C23.0769 30.9167 22.0832 29.923 22.0832 28.7084C22.0832 27.4938 23.0769 26.5 24.2915 26.5H41.9582C43.1728 26.5 44.1665 27.4938 44.1665 28.7084C44.1665 29.923 43.1728 30.9167 41.9582 30.9167Z" fill="white"/>
</svg>
