<svg width="272" height="135" viewBox="0 0 272 135" fill="none" xmlns="http://www.w3.org/2000/svg">
<path d="M3 97.9336L6.9414 97.5037C10.8828 97.0738 18.7656 96.2139 26.6484 99.2089C34.5312 102.204 42.414 109.054 50.2968 113.945C58.1796 118.837 68.4628 91.3503 76.3456 85.5865C84.2284 79.8227 89.9775 129.55 97.8603 131.779C105.743 134.008 113.359 119.157 121.242 97.5904C129.125 76.0241 137.008 58.7659 144.89 29.7271C152.773 0.688157 160.656 4.66115 168.539 31.9862C176.422 59.3112 184.304 65.1956 192.187 65.26C200.07 65.3243 209.286 92.5156 217.169 79.9874C225.052 67.4592 231.601 15.2114 239.484 14.9079C247.367 14.6044 258.243 28.1959 269 3" stroke="#F0A0A0" stroke-width="5" stroke-linecap="round"/>
</svg>
