<svg width="266" height="119" viewBox="0 0 266 119" fill="none" xmlns="http://www.w3.org/2000/svg">
<path d="M3 65.0277L5.54902 66.3686C8.09804 67.7096 13.1961 70.3915 18.2941 75.5122C23.3922 80.633 28.4902 88.1925 33.5882 94.3657C38.6863 100.539 43.7843 105.326 48.8824 97.472C53.9804 89.6183 59.0784 69.1241 64.1765 71.1357C69.2745 73.1473 74.3726 97.6647 79.4706 108.449C84.5686 119.233 89.6667 116.285 94.7647 112.879C99.8627 109.473 104.961 105.61 110.059 95.028C115.157 84.4463 120.255 67.1462 125.353 60.2106C130.451 53.275 135.549 56.704 140.647 50.6207C145.745 44.5374 150.843 28.9418 155.941 22.926C161.039 16.9103 166.137 20.4745 171.235 29.2258C176.333 37.9771 181.431 51.9154 186.529 51.4446C191.627 50.9739 196.725 36.094 201.824 34.9467C206.922 33.7994 212.02 46.3847 217.118 58.4197C222.216 70.4548 227.314 81.9395 232.412 73.4593C237.51 64.979 242.608 36.5338 247.706 21.463C252.804 6.39232 257.902 4.69616 260.451 3.84808L263 3" stroke="#56B786" stroke-width="5" stroke-linecap="round"/>
</svg>
