<svg width="47" height="37" viewBox="0 0 47 37" fill="none" xmlns="http://www.w3.org/2000/svg">
<g clip-path="url(#clip0_98_5604)">
<path d="M39.2891 2.96292C38.5987 2.28362 38.5987 1.18518 39.2891 0.513114C39.9794 -0.158956 41.0956 -0.166183 41.7786 0.513114L46.4786 5.13811C46.8091 5.46331 46.9927 5.90413 46.9927 6.36663C46.9927 6.82913 46.8091 7.26995 46.4786 7.59515L41.7786 12.2201C41.0883 12.8994 39.972 12.8994 39.2891 12.2201C38.6061 11.5408 38.5987 10.4424 39.2891 9.77034L40.9781 8.10823L28.2 8.09378C27.2233 8.09378 26.4375 7.32054 26.4375 6.3594C26.4375 5.39827 27.2233 4.62503 28.2 4.62503H40.9855L39.2891 2.96292ZM7.71094 27.2442L6.02187 28.9063H18.8C19.7767 28.9063 20.5625 29.6795 20.5625 30.6407C20.5625 31.6018 19.7767 32.375 18.8 32.375H6.01453L7.70359 34.0371C8.39391 34.7164 8.39391 35.8149 7.70359 36.4869C7.01328 37.159 5.89703 37.1662 5.21406 36.4869L0.514062 31.8692C0.183594 31.544 0 31.1032 0 30.6407C0 30.1782 0.183594 29.7373 0.514062 29.4121L5.21406 24.7871C5.90437 24.1078 7.02062 24.1078 7.70359 24.7871C8.38656 25.4664 8.39391 26.5649 7.70359 27.2369L7.71094 27.2442ZM7.05 4.62503H24.8145C24.5428 5.14534 24.3812 5.73069 24.3812 6.3594C24.3812 8.43343 26.0923 10.1172 28.2 10.1172H36.8216C36.5278 11.3457 36.8656 12.6826 37.835 13.6438C39.3258 15.1108 41.7419 15.1108 43.2327 13.6438L44.65 12.2491V27.75C44.65 30.301 42.5423 32.375 39.95 32.375H22.1855C22.4572 31.8547 22.6187 31.2694 22.6187 30.6407C22.6187 28.5666 20.9077 26.8828 18.8 26.8828H10.1784C10.4722 25.6543 10.1344 24.3174 9.165 23.3563C7.67422 21.8893 5.25812 21.8893 3.76734 23.3563L2.35 24.751V9.25003C2.35 6.69905 4.45766 4.62503 7.05 4.62503ZM11.75 9.25003H7.05V13.875C9.64234 13.875 11.75 11.801 11.75 9.25003ZM39.95 23.125C37.3577 23.125 35.25 25.1991 35.25 27.75H39.95V23.125ZM23.5 25.4375C25.3698 25.4375 27.163 24.7066 28.4851 23.4056C29.8072 22.1045 30.55 20.34 30.55 18.5C30.55 16.6601 29.8072 14.8955 28.4851 13.5945C27.163 12.2934 25.3698 11.5625 23.5 11.5625C21.6302 11.5625 19.837 12.2934 18.5149 13.5945C17.1928 14.8955 16.45 16.6601 16.45 18.5C16.45 20.34 17.1928 22.1045 18.5149 23.4056C19.837 24.7066 21.6302 25.4375 23.5 25.4375Z" fill="white"/>
</g>
<defs>
<clipPath id="clip0_98_5604">
<rect width="47" height="37" fill="white"/>
</clipPath>
</defs>
</svg>
