<svg width="24" height="31" viewBox="0 0 24 31" fill="none" xmlns="http://www.w3.org/2000/svg">
<path d="M6.77709 21.8175L6.51481 22.1542V22.1575L5.84779 23.0091C5.84582 23.0106 5.8442 23.0125 5.8431 23.0148C5.84196 23.017 5.84138 23.0195 5.84132 23.022L0.391792 29.9966H0.388561C0.386715 29.9983 0.385556 30.0006 0.38532 30.0031L0 30.4953V27.2929L6.51158 22.0344V22.0312L6.77709 21.8175Z" fill="url(#paint0_linear_20_1365)"/>
<path d="M15.0793 11.6178L14.762 12.3399C14.7589 12.3437 14.7567 12.3481 14.7555 12.3528L7.00052 29.9901C6.99926 29.9948 6.99706 29.9993 6.99404 30.0031L6.82243 30.3949L6.7771 30.4952V18.3237L14.7587 11.8769L15.0793 11.6178Z" fill="url(#paint1_linear_20_1365)"/>
<path d="M24 0L23.6988 1.03292L23.6956 1.03615C23.6956 1.03615 23.6988 1.03615 23.6956 1.03939C23.6952 1.04282 23.6941 1.04613 23.6924 1.04911V1.05558C23.6913 1.06341 23.6891 1.07104 23.6859 1.07825H23.6827C23.6786 1.08988 23.6753 1.10178 23.6729 1.11386L15.4647 29.1774V29.1871L15.455 29.2228L15.1538 30.246L15.0793 30.4953V7.2045L23.0772 0.744735C23.0804 0.744735 23.0836 0.741497 23.0869 0.738259L24 0Z" fill="url(#paint2_linear_20_1365)"/>
<path d="M24 0V30.4953H15.0793L15.1538 30.246L15.455 29.2228L15.4647 29.1871V29.1774L23.6729 1.11386C23.6753 1.10178 23.6786 1.08988 23.6827 1.07825H23.6859C23.6891 1.07104 23.6913 1.06341 23.6924 1.05558V1.04911C23.6941 1.04613 23.6952 1.04282 23.6956 1.03939C23.6988 1.03615 23.6956 1.03615 23.6956 1.03615L23.6988 1.03292L24 0Z" fill="url(#paint3_linear_20_1365)"/>
<path d="M15.0793 11.6178V30.4952H6.7771L6.82243 30.3949L6.99404 30.0031C6.99706 29.9993 6.99926 29.9948 7.00052 29.9901L14.7555 12.3528C14.7567 12.3481 14.7589 12.3437 14.762 12.3399L15.0793 11.6178Z" fill="url(#paint4_linear_20_1365)"/>
<path d="M6.77709 21.8175V30.4953H0L0.38532 30.0031C0.385556 30.0006 0.386715 29.9983 0.388561 29.9966H0.391792L5.8575 22.9961L6.51481 22.1542L6.77709 21.8175Z" fill="url(#paint5_linear_20_1365)"/>
<g style="mix-blend-mode:multiply" opacity="0.25">
<path d="M23.0772 0.744751C22.449 1.32435 21.8079 1.88128 21.1668 2.44145C20.5256 3.01457 19.8715 3.57149 19.2207 4.13166L17.252 5.79602L15.3837 7.34697L15.3966 9.39338C15.3999 10.1252 15.4031 10.8537 15.3999 11.5855C15.3934 13.0426 15.387 14.5029 15.3611 15.9632C15.3546 16.6918 15.3384 17.4236 15.3222 18.1521C15.306 18.8807 15.2866 19.6125 15.2639 20.341C15.2412 21.0696 15.2121 21.8013 15.183 22.5299C15.1538 23.2584 15.1247 23.9902 15.0793 24.722C15.034 23.9902 15.0049 23.2616 14.9725 22.5299C14.9401 21.7981 14.911 21.0728 14.8915 20.341C14.8721 19.6092 14.8495 18.8839 14.8365 18.1521C14.8235 17.4203 14.8009 16.6918 14.7944 15.9632C14.775 14.7555 14.7653 13.5445 14.762 12.3399C14.762 12.1975 14.7588 12.0582 14.7588 11.919V11.8769L15.0793 11.6179V7.2045L23.0772 0.744751Z" fill="black"/>
</g>
<g style="mix-blend-mode:multiply" opacity="0.25">
<path d="M15.0794 11.6178C14.9715 11.7214 14.8646 11.8218 14.7589 11.919C14.2149 12.4338 13.6612 12.9292 13.1075 13.4246C12.4404 14.0139 11.7702 14.6 11.0934 15.1764C10.4167 15.7527 9.7335 16.3226 9.05028 16.8893C8.39945 17.417 7.75509 17.9578 7.09778 18.4791C7.0913 19.2109 7.09454 19.9459 7.07511 20.6777C7.06216 21.4645 7.04921 22.2481 7.02007 23.0349C7.00064 23.8185 6.96502 24.6021 6.9294 25.389C6.88731 26.1725 6.84522 26.9594 6.77722 27.743C6.71246 26.9594 6.67037 26.1725 6.62827 25.389C6.59265 24.6021 6.55704 23.8185 6.53761 23.0349C6.5279 22.7435 6.51818 22.4489 6.51494 22.1575V22.1542C6.51064 22.134 6.50957 22.1132 6.51171 22.0927C6.50847 22.0734 6.50847 22.0537 6.51171 22.0344V22.0312L6.77722 21.8175V18.3237L14.7589 11.8769L15.0794 11.6178Z" fill="black"/>
</g>
<g style="mix-blend-mode:multiply" opacity="0.25">
<path d="M6.77709 21.8175C6.68967 21.9114 6.60224 22.002 6.51158 22.0927C6.09064 22.5266 5.65675 22.9411 5.21315 23.349C4.67888 23.8412 4.13166 24.3204 3.57797 24.7899C3.30598 25.0296 3.02103 25.253 2.74257 25.4861C2.4641 25.7192 2.17916 25.9459 1.89422 26.1693C1.60928 26.3927 1.32757 26.6259 1.03616 26.8428C0.77388 27.0371 0.514839 27.2379 0.252562 27.4289C0.229896 27.9178 0.203996 28.4068 0.16514 28.8925C0.119808 29.4267 0.0744735 29.961 0 30.4953V27.2929L6.51158 22.0344V22.0312L6.77709 21.8175Z" fill="black"/>
</g>
<g style="mix-blend-mode:multiply" opacity="0.25">
<path d="M23.9998 3.94382V30.4952H3.18604C4.38084 30.4499 5.57889 30.424 6.77694 30.3949H6.82231L8.38945 30.356L10.9896 30.3042L13.5929 30.2621L15.0792 30.2459H15.1536L18.7963 30.2071L23.6825 30.1812C23.676 28.0732 23.6771 25.9653 23.6857 23.8574C23.6857 21.6458 23.7116 19.4311 23.7278 17.2195L23.7699 13.9006L23.8282 10.5817L23.9059 7.26275C23.9285 6.15536 23.9609 5.05121 23.9998 3.94382Z" fill="black"/>
</g>
<g style="mix-blend-mode:multiply" opacity="0.25">
<path d="M6.23004 22.3777C6.20738 22.4166 6.07138 22.6497 5.84796 23.0091C5.84598 23.0107 5.8444 23.0126 5.84326 23.0149C5.84213 23.0171 5.84155 23.0196 5.84148 23.0221L0.391971 29.9967L0.385498 30.0032C0.385734 30.0007 0.38689 29.9984 0.388739 29.9967C0.424357 29.9352 0.719013 29.43 1.18852 28.7274C1.43784 28.3486 1.73574 27.9147 2.06601 27.4581C2.39628 27.0016 2.7557 26.5191 3.11511 26.0399C3.48747 25.5671 3.85336 25.0911 4.21278 24.6573C4.5722 24.2234 4.90895 23.8186 5.21008 23.4786C5.77025 22.8375 6.18471 22.4198 6.23004 22.3777Z" fill="black"/>
</g>
<g style="mix-blend-mode:multiply" opacity="0.25">
<path d="M14.7553 12.3528L7.00037 29.9901C6.99911 29.9948 6.99691 29.9992 6.9939 30.0031C6.9939 30.0031 7.09751 29.7181 7.28531 29.226C7.47959 28.7338 7.74187 28.0247 8.08186 27.186C8.41537 26.3474 8.81688 25.3695 9.25724 24.3269C9.69761 23.2843 10.1768 22.1801 10.6561 21.0727C11.145 19.9718 11.6339 18.8677 12.1099 17.8412C12.5794 16.8148 13.0263 15.8596 13.4213 15.0436C13.8098 14.2276 14.1531 13.5541 14.3862 13.0814C14.5912 12.6669 14.7262 12.4111 14.7553 12.3528Z" fill="black"/>
</g>
<g style="mix-blend-mode:multiply" opacity="0.25">
<path d="M23.2973 2.23093C23.4883 1.65781 23.6178 1.26925 23.6728 1.11383L15.4646 29.1774C15.5002 29.0446 15.6006 28.6302 15.7625 27.9955C15.9697 27.2216 16.2449 26.1045 16.6108 24.777C16.9767 23.4494 17.388 21.8984 17.8575 20.2406C18.3205 18.5827 18.8321 16.8213 19.3437 15.0566C19.8617 13.2983 20.3799 11.5369 20.885 9.89198C21.3804 8.24385 21.8725 6.71228 22.2773 5.39767C22.682 4.08305 23.0544 2.9951 23.2973 2.23093Z" fill="black"/>
</g>
<g style="mix-blend-mode:multiply" opacity="0.25">
<path d="M23.6925 1.05496C23.6914 1.06311 23.6891 1.07106 23.6858 1.07857H23.6824C23.6851 1.07045 23.6885 1.06255 23.6925 1.05496Z" fill="black"/>
</g>
<g style="mix-blend-mode:screen" opacity="0.6">
<path d="M0.389144 29.9966H0.39278L0.385498 30.0039C0.385764 30.0011 0.387064 29.9985 0.389144 29.9966Z" fill="white"/>
</g>
<g style="mix-blend-mode:screen" opacity="0.4">
<path d="M5.85757 22.9961C5.73776 23.1807 5.59529 23.4041 5.43015 23.6502C5.18083 24.0258 4.88294 24.4597 4.55266 24.9162C4.22239 25.3728 3.86297 25.8553 3.50032 26.3345C3.13118 26.8105 2.76528 27.2832 2.40587 27.7171C2.04645 28.151 1.70647 28.5557 1.40858 28.8957C0.851645 29.5336 0.440415 29.9481 0.391846 29.9966L5.85757 22.9961Z" fill="white"/>
</g>
<g style="mix-blend-mode:screen" opacity="0.4">
<path d="M14.7619 12.34C14.7619 12.34 14.6615 12.6249 14.4705 13.1171C14.2795 13.6093 14.014 14.3184 13.6772 15.157C13.3405 15.9956 12.9389 16.9735 12.4986 18.0161C12.0647 19.0588 11.5823 20.1629 11.0998 21.2703C10.6109 22.3712 10.1219 23.4721 9.64916 24.4986C9.17641 25.525 8.72957 26.4835 8.33454 27.2994C7.94598 28.1154 7.60275 28.7889 7.37286 29.2616C7.16563 29.6761 7.02963 29.9319 7.00049 29.9902L14.7554 12.3529C14.7567 12.3482 14.7589 12.3438 14.7619 12.34Z" fill="white"/>
</g>
<g style="mix-blend-mode:screen" opacity="0.6">
<path d="M23.6925 1.05496C23.6914 1.06279 23.6893 1.07042 23.686 1.07763C23.6536 1.21039 23.55 1.62161 23.3881 2.25625C23.1841 3.03013 22.9056 4.14725 22.5397 5.47482C22.1738 6.80239 21.7627 8.35338 21.2964 10.0112C20.8301 11.6691 20.3185 13.4305 19.8102 15.1952C19.2888 16.9535 18.7707 18.7149 18.2656 20.3598C17.7702 22.0079 17.278 23.5395 16.8733 24.8541C16.4685 26.1687 16.0962 27.2567 15.8533 28.0208C15.6299 28.6879 15.4939 29.1088 15.4615 29.2027C15.461 29.1971 15.4622 29.1915 15.4648 29.1865V29.1768L23.673 1.11325C23.6755 1.10116 23.6787 1.08926 23.6828 1.07763C23.6854 1.06983 23.6886 1.06225 23.6925 1.05496Z" fill="white"/>
</g>
<defs>
<linearGradient id="paint0_linear_20_1365" x1="3.38855" y1="22.6766" x2="3.38855" y2="29.2543" gradientUnits="userSpaceOnUse">
<stop stop-color="#3E6896"/>
<stop offset="0.247" stop-color="#355881"/>
<stop offset="0.75" stop-color="#1F324E"/>
<stop offset="1" stop-color="#131D32"/>
</linearGradient>
<linearGradient id="paint1_linear_20_1365" x1="10.9282" y1="13.9586" x2="10.9282" y2="26.5499" gradientUnits="userSpaceOnUse">
<stop stop-color="#49A09D"/>
<stop offset="0.149" stop-color="#4A989B"/>
<stop offset="0.375" stop-color="#4E8396"/>
<stop offset="0.65" stop-color="#54618E"/>
<stop offset="0.96" stop-color="#5D3283"/>
<stop offset="1" stop-color="#5F2C82"/>
</linearGradient>
<linearGradient id="paint2_linear_20_1365" x1="19.5397" y1="1.06734" x2="19.5397" y2="25.1281" gradientUnits="userSpaceOnUse">
<stop stop-color="#00F3FF"/>
<stop offset="0.238" stop-color="#00EFFC"/>
<stop offset="0.44" stop-color="#00E5F4"/>
<stop offset="0.629" stop-color="#00D3E7"/>
<stop offset="0.81" stop-color="#00BAD4"/>
<stop offset="0.983" stop-color="#009BBC"/>
<stop offset="1" stop-color="#0098BA"/>
</linearGradient>
<linearGradient id="paint3_linear_20_1365" x1="19.5397" y1="17.6568" x2="19.5397" y2="33.7278" gradientUnits="userSpaceOnUse">
<stop stop-color="#00F3FF"/>
<stop offset="0.238" stop-color="#00EFFC"/>
<stop offset="0.44" stop-color="#00E5F4"/>
<stop offset="0.629" stop-color="#00D3E7"/>
<stop offset="0.81" stop-color="#00BAD4"/>
<stop offset="0.983" stop-color="#009BBC"/>
<stop offset="1" stop-color="#0098BA"/>
</linearGradient>
<linearGradient id="paint4_linear_20_1365" x1="10.9282" y1="18.9611" x2="10.9282" y2="32.553" gradientUnits="userSpaceOnUse">
<stop stop-color="#49A09D"/>
<stop offset="0.149" stop-color="#4A989B"/>
<stop offset="0.375" stop-color="#4E8396"/>
<stop offset="0.65" stop-color="#54618E"/>
<stop offset="0.96" stop-color="#5D3283"/>
<stop offset="1" stop-color="#5F2C82"/>
</linearGradient>
<linearGradient id="paint5_linear_20_1365" x1="3.38855" y1="25.9655" x2="3.38855" y2="31.9878" gradientUnits="userSpaceOnUse">
<stop stop-color="#3E6896"/>
<stop offset="0.247" stop-color="#355881"/>
<stop offset="0.75" stop-color="#1F324E"/>
<stop offset="1" stop-color="#131D32"/>
</linearGradient>
</defs>
</svg>
