<svg width="40" height="47" viewBox="0 0 40 47" fill="none" xmlns="http://www.w3.org/2000/svg">
<g clip-path="url(#clip0_98_5606)">
<path d="M33.9324 3.65833C31.7552 1.18663 27.8196 0.126953 22.7848 0.126953H8.17225C7.6741 0.126971 7.1923 0.303987 6.81346 0.626176C6.43463 0.948364 6.18361 1.39459 6.10554 1.88463L0.0211601 40.3199C-0.0997773 41.0778 0.489441 41.7641 1.26069 41.7641H10.2819L12.5476 27.4508L12.4773 27.899C12.6387 26.8872 13.5074 26.141 14.5362 26.141H18.823C27.2446 26.141 33.8388 22.734 35.7651 12.8781C35.8223 12.5866 35.8718 12.3029 35.9146 12.0257C35.6715 11.8975 35.6715 11.8975 35.9146 12.0257C36.4882 8.38292 35.9107 5.90328 33.9324 3.65833Z" fill="#27346A"/>
<path d="M15.9994 10.7135C16.2461 10.5965 16.5158 10.5359 16.789 10.5361H28.2449C29.6015 10.5361 30.8668 10.624 32.023 10.8093C32.3466 10.8607 32.6685 10.9221 32.9882 10.9933C33.4414 11.0929 33.8893 11.2148 34.3304 11.3586C34.8988 11.5476 35.4282 11.7679 35.9148 12.0257C36.4882 8.38152 35.9107 5.90328 33.9324 3.65833C31.754 1.18663 27.8196 0.126953 22.7848 0.126953H8.171C7.1421 0.126953 6.26679 0.873039 6.10554 1.88463L0.021161 40.3185C-0.0997765 41.0776 0.489442 41.763 1.25944 41.763H10.2819L14.9824 12.0737C15.0286 11.7818 15.1453 11.5056 15.3225 11.2686C15.4997 11.0317 15.732 10.8412 15.9994 10.7135Z" fill="#27346A"/>
<path d="M35.765 12.8781C33.8387 22.7326 27.2447 26.141 18.8229 26.141H14.5348C13.5061 26.141 12.6372 26.8872 12.4773 27.899L9.65873 45.696C9.55341 46.3593 10.0684 46.9603 10.7422 46.9603H18.3469C18.7825 46.9602 19.2038 46.8053 19.5349 46.5234C19.8661 46.2415 20.0855 45.8512 20.1536 45.4227L20.2276 45.0367L21.6609 35.9891L21.7533 35.489C21.8213 35.0605 22.0407 34.6702 22.3718 34.3884C22.703 34.1065 23.1242 33.9516 23.5598 33.9514H24.6979C32.0647 33.9514 37.8329 30.9705 39.5186 22.3493C40.2222 18.7464 39.8581 15.7384 37.9969 13.6256C37.4323 12.9857 36.7312 12.4572 35.9145 12.0258C35.8703 12.3043 35.8223 12.5866 35.765 12.8781Z" fill="#2790C3"/>
<path d="M33.8987 11.2252C33.5983 11.1378 33.2951 11.0605 32.9896 10.9933C32.6697 10.9232 32.3479 10.8623 32.0245 10.8106C30.867 10.624 29.6026 10.5359 28.2448 10.5359H16.7902C16.5169 10.5353 16.2469 10.5964 16.0007 10.7147C15.7329 10.842 15.5004 11.0324 15.3231 11.2694C15.1459 11.5065 15.0293 11.7829 14.9835 12.0749L12.5488 27.4508L12.4785 27.899C12.6387 26.8872 13.5074 26.141 14.5363 26.141H18.8245C27.246 26.141 33.8401 22.7339 35.7663 12.8781C35.8237 12.5866 35.8718 12.3042 35.916 12.0257C35.4282 11.7693 34.9002 11.5476 34.3316 11.3598C34.1882 11.3124 34.0439 11.2675 33.8988 11.2252" fill="#1F264F"/>
</g>
<defs>
<clipPath id="clip0_98_5606">
<rect width="40" height="47" fill="white"/>
</clipPath>
</defs>
</svg>
