<svg width="79" height="29" viewBox="0 0 79 29" fill="none" xmlns="http://www.w3.org/2000/svg">
<path d="M14.8379 21.3555C14.8379 20.8633 14.7617 20.4238 14.6094 20.0371C14.4688 19.6387 14.2051 19.2812 13.8184 18.9648C13.4434 18.6367 12.9102 18.3203 12.2188 18.0156C11.5391 17.6992 10.6602 17.3711 9.58203 17.0312C8.38672 16.6562 7.27344 16.2344 6.24219 15.7656C5.21094 15.2969 4.30273 14.752 3.51758 14.1309C2.74414 13.5098 2.14062 12.7949 1.70703 11.9863C1.27344 11.166 1.05664 10.2168 1.05664 9.13867C1.05664 8.08398 1.2793 7.12305 1.72461 6.25586C2.18164 5.38867 2.82617 4.64453 3.6582 4.02344C4.49023 3.39062 5.46875 2.9043 6.59375 2.56445C7.73047 2.22461 8.98438 2.05469 10.3555 2.05469C12.2539 2.05469 13.8945 2.40039 15.2773 3.0918C16.6719 3.7832 17.75 4.7207 18.5117 5.9043C19.2734 7.08789 19.6543 8.41797 19.6543 9.89453H14.8379C14.8379 9.09766 14.668 8.39453 14.3281 7.78516C14 7.17578 13.4961 6.69531 12.8164 6.34375C12.1484 5.99219 11.3047 5.81641 10.2852 5.81641C9.30078 5.81641 8.48047 5.96289 7.82422 6.25586C7.17969 6.54883 6.69336 6.94727 6.36523 7.45117C6.04883 7.95508 5.89062 8.51758 5.89062 9.13867C5.89062 9.60742 6.00195 10.0293 6.22461 10.4043C6.44727 10.7676 6.78125 11.1133 7.22656 11.4414C7.67188 11.7578 8.22266 12.0566 8.87891 12.3379C9.54688 12.6074 10.3203 12.877 11.1992 13.1465C12.6055 13.5684 13.8359 14.0371 14.8906 14.5527C15.957 15.0684 16.8418 15.6543 17.5449 16.3105C18.2598 16.9668 18.793 17.7051 19.1445 18.5254C19.5078 19.3457 19.6895 20.2773 19.6895 21.3203C19.6895 22.4219 19.4727 23.4062 19.0391 24.2734C18.6055 25.1406 17.9844 25.8789 17.1758 26.4883C16.3672 27.0977 15.3945 27.5605 14.2578 27.877C13.1328 28.1934 11.873 28.3516 10.4785 28.3516C9.23633 28.3516 8.00586 28.1875 6.78711 27.8594C5.58008 27.5195 4.48438 27.0156 3.5 26.3477C2.51562 25.668 1.73047 24.8125 1.14453 23.7812C0.558594 22.7383 0.265625 21.5195 0.265625 20.125H5.11719C5.11719 20.9336 5.24609 21.625 5.50391 22.1992C5.77344 22.7617 6.14844 23.2246 6.62891 23.5879C7.12109 23.9395 7.69531 24.1973 8.35156 24.3613C9.00781 24.5254 9.7168 24.6074 10.4785 24.6074C11.4629 24.6074 12.2715 24.4727 12.9043 24.2031C13.5488 23.9219 14.0293 23.5352 14.3457 23.043C14.6738 22.5508 14.8379 21.9883 14.8379 21.3555ZM27.7051 0.982422V28H23.0645V0.982422H27.7051ZM39.623 8.98047L31.3438 18.2793L26.8613 22.832L25.3848 19.2285L28.8477 14.8691L34.0156 8.98047H39.623ZM34.877 28L28.9883 19.1406L32.082 16.1348L40.2559 28H34.877ZM46.7246 12.8652V28H42.084V8.98047H46.4785L46.7246 12.8652ZM52.5078 8.85742L52.4375 13.1816C52.1797 13.1348 51.8867 13.0996 51.5586 13.0762C51.2422 13.0527 50.9434 13.041 50.6621 13.041C49.9473 13.041 49.3203 13.1406 48.7812 13.3398C48.2422 13.5273 47.791 13.8027 47.4277 14.166C47.0762 14.5293 46.8066 14.9746 46.6191 15.502C46.4316 16.0176 46.3262 16.6035 46.3027 17.2598L45.3008 17.1367C45.3008 15.9297 45.4238 14.8105 45.6699 13.7793C45.916 12.748 46.2734 11.8457 46.7422 11.0723C47.2109 10.2988 47.7969 9.70117 48.5 9.2793C49.2148 8.8457 50.0352 8.62891 50.9609 8.62891C51.2188 8.62891 51.4941 8.65234 51.7871 8.69922C52.0918 8.73438 52.332 8.78711 52.5078 8.85742ZM59.9785 8.98047V28H55.3203V8.98047H59.9785ZM55.0039 4.00586C55.0039 3.31445 55.2383 2.74023 55.707 2.2832C56.1875 1.82617 56.832 1.59766 57.6406 1.59766C58.4492 1.59766 59.0879 1.82617 59.5566 2.2832C60.0371 2.74023 60.2773 3.31445 60.2773 4.00586C60.2773 4.68555 60.0371 5.25391 59.5566 5.71094C59.0879 6.16797 58.4492 6.39648 57.6406 6.39648C56.832 6.39648 56.1875 6.16797 55.707 5.71094C55.2383 5.25391 55.0039 4.68555 55.0039 4.00586ZM69.3301 1V28H64.6719V1H69.3301ZM78.6816 1V28H74.0234V1H78.6816Z" fill="white"/>
</svg>
