<svg width="44" height="53" viewBox="0 0 44 53" fill="none" xmlns="http://www.w3.org/2000/svg">
<g clip-path="url(#clip0_98_5611)">
<path d="M34.3826 29.7728C34.3826 28.3926 30.2796 27.2376 24.7796 26.9461L24.7832 26.9439C23.8675 26.8842 22.9503 26.8599 22.0332 26.871C20.6051 26.871 19.5949 26.9218 19.2392 26.9439C13.7282 27.2354 9.61424 28.3904 9.61424 29.7728C9.61424 31.1552 13.7282 32.3124 19.2392 32.6083V28.0944C19.5986 28.0613 20.6307 27.9884 22.0571 27.9884C23.7676 27.9884 24.6237 28.0768 24.7796 28.0922V32.6039C30.2796 32.3101 34.3826 31.153 34.3826 29.7728ZM43.8976 28.567L22.2276 3.55544C22.1661 3.48458 22.0844 3.44502 21.9993 3.44502C21.9143 3.44502 21.8325 3.48458 21.7711 3.55544L0.102903 28.567C0.0520543 28.6246 0.0178518 28.7002 0.00531362 28.7829C-0.00722453 28.8655 0.00256175 28.9509 0.0332367 29.0264L8.0559 49.3276C8.0824 49.3958 8.1247 49.4534 8.17771 49.4933C8.23073 49.5333 8.2922 49.5539 8.35474 49.5528H35.6494C35.7112 49.5525 35.7716 49.5309 35.8236 49.4906C35.8756 49.4503 35.9169 49.393 35.9427 49.3254L43.9672 29.0264C43.9979 28.9509 44.0077 28.8655 43.9952 28.7829C43.9826 28.7002 43.9484 28.6246 43.8976 28.567ZM35.6879 29.4592C35.6879 31.2391 31.0092 32.7275 24.7851 33.0742V37.1111H32.4594V43.2723H11.5649V37.1111H19.2374V33.072C13.0004 32.7275 8.31074 31.2391 8.31074 29.457C8.31074 27.6726 13.0004 26.1886 19.2374 25.8397V12.8945H24.7832V25.8441C31.0056 26.1909 35.6879 27.6771 35.6879 29.4592Z" fill="white"/>
</g>
<defs>
<clipPath id="clip0_98_5611">
<rect width="44" height="53" fill="white" transform="matrix(1 0 0 -1 0 53)"/>
</clipPath>
</defs>
</svg>
