<svg width="28" height="28" viewBox="0 0 28 28" fill="none" xmlns="http://www.w3.org/2000/svg">
<path d="M17.4708 3.52212L18.5908 1.50145C18.6051 1.47556 18.6142 1.4471 18.6175 1.4177C18.6208 1.38829 18.6183 1.35852 18.6102 1.33008C18.602 1.30165 18.5883 1.2751 18.5698 1.25195C18.5514 1.22881 18.5286 1.20953 18.5027 1.1952C18.4768 1.18088 18.4483 1.17179 18.4189 1.16847C18.3895 1.16514 18.3598 1.16764 18.3313 1.17582C18.3029 1.184 18.2763 1.1977 18.2532 1.21614C18.2301 1.23458 18.2108 1.25739 18.1964 1.28328L17.0648 3.32495C16.0987 2.90139 15.0554 2.68271 14.0005 2.68271C12.9457 2.68271 11.9023 2.90139 10.9363 3.32495L9.80461 1.28328C9.77568 1.23068 9.72704 1.19173 9.66939 1.17499C9.61173 1.15825 9.54979 1.1651 9.49719 1.19403C9.44459 1.22297 9.40564 1.27161 9.3889 1.32926C9.37216 1.38691 9.37901 1.44885 9.40794 1.50145L10.5279 3.52212C9.4623 4.04769 8.56195 4.85655 7.92563 5.86001C7.28931 6.86347 6.9416 8.02277 6.92061 9.21078H21.0804C21.0592 8.02252 20.7112 6.86305 20.0744 5.85957C19.4377 4.85609 18.5369 4.04737 17.4708 3.52212ZM10.7333 6.61962C10.6162 6.61962 10.5018 6.5849 10.4045 6.51985C10.3072 6.4548 10.2314 6.36236 10.1867 6.2542C10.142 6.14605 10.1303 6.02706 10.1532 5.91229C10.1761 5.79752 10.2326 5.69213 10.3154 5.60945C10.3983 5.52678 10.5038 5.47053 10.6186 5.44784C10.7334 5.42515 10.8524 5.43703 10.9604 5.48198C11.0685 5.52693 11.1608 5.60292 11.2257 5.70035C11.2905 5.79777 11.325 5.91225 11.3248 6.02928C11.3245 6.18596 11.262 6.33611 11.1511 6.44678C11.0402 6.55746 10.8899 6.61962 10.7333 6.61962ZM17.2689 6.61962C17.1519 6.61962 17.0375 6.5849 16.9402 6.51985C16.8429 6.4548 16.7671 6.36236 16.7224 6.2542C16.6776 6.14605 16.666 6.02706 16.6889 5.91229C16.7118 5.79752 16.7683 5.69213 16.8511 5.60945C16.9339 5.52678 17.0394 5.47053 17.1543 5.44784C17.2691 5.42515 17.388 5.43703 17.4961 5.48198C17.6042 5.52693 17.6965 5.60292 17.7613 5.70035C17.8262 5.79777 17.8607 5.91225 17.8604 6.02928C17.8601 6.18596 17.7977 6.33611 17.6868 6.44678C17.5759 6.55746 17.4256 6.61962 17.2689 6.61962ZM6.91828 20.0328C6.91797 20.258 6.96213 20.4811 7.04822 20.6893C7.13431 20.8974 7.26064 21.0865 7.41997 21.2457C7.5793 21.405 7.76849 21.5312 7.9767 21.6171C8.1849 21.7031 8.40803 21.7471 8.63328 21.7466H9.76844V25.2466C9.76844 25.6676 9.93567 26.0713 10.2333 26.369C10.531 26.6666 10.9347 26.8339 11.3557 26.8339C11.7767 26.8339 12.1804 26.6666 12.478 26.369C12.7757 26.0713 12.9429 25.6676 12.9429 25.2466V21.7466H15.0593V25.2466C15.0593 25.6674 15.2264 26.071 15.524 26.3686C15.8216 26.6661 16.2251 26.8333 16.6459 26.8333C17.0668 26.8333 17.4703 26.6661 17.7679 26.3686C18.0654 26.071 18.2326 25.6674 18.2326 25.2466V21.7466H19.3689C19.5939 21.7468 19.8167 21.7026 20.0245 21.6166C20.2324 21.5305 20.4213 21.4044 20.5803 21.2453C20.7394 21.0863 20.8655 20.8974 20.9516 20.6895C21.0376 20.4817 21.0818 20.2589 21.0816 20.034V9.77078H6.91828V20.0328ZM4.74011 9.49778C4.31929 9.4984 3.91589 9.66593 3.61844 9.9636C3.32098 10.2613 3.15375 10.6648 3.15344 11.0856V17.6995C3.15344 17.9078 3.19448 18.1141 3.27422 18.3066C3.35396 18.4991 3.47083 18.6741 3.61817 18.8214C3.7655 18.9687 3.94041 19.0856 4.13292 19.1653C4.32542 19.2451 4.53175 19.2861 4.74011 19.2861C4.94847 19.2861 5.1548 19.2451 5.3473 19.1653C5.5398 19.0856 5.71472 18.9687 5.86205 18.8214C6.00939 18.6741 6.12626 18.4991 6.206 18.3066C6.28574 18.1141 6.32678 17.9078 6.32678 17.6995V11.0856C6.32616 10.665 6.15879 10.2618 5.86137 9.96436C5.56395 9.66693 5.16073 9.49957 4.74011 9.49895V9.49778ZM23.2574 9.49778C22.8366 9.4984 22.4332 9.66593 22.1358 9.9636C21.8383 10.2613 21.6711 10.6648 21.6708 11.0856V17.6995C21.6708 17.9078 21.7118 18.1141 21.7916 18.3066C21.8713 18.4991 21.9882 18.6741 22.1355 18.8214C22.2828 18.9687 22.4578 19.0856 22.6503 19.1653C22.8428 19.2451 23.0491 19.2861 23.2574 19.2861C23.4658 19.2861 23.6721 19.2451 23.8646 19.1653C24.0571 19.0856 24.232 18.9687 24.3794 18.8214C24.5267 18.6741 24.6436 18.4991 24.7233 18.3066C24.8031 18.1141 24.8441 17.9078 24.8441 17.6995V11.0856C24.8435 10.665 24.6761 10.2618 24.3787 9.96436C24.0813 9.66693 23.6781 9.49957 23.2574 9.49895V9.49778Z" fill="black"/>
</svg>
