<svg width="28" height="28" viewBox="0 0 28 28" fill="none" xmlns="http://www.w3.org/2000/svg">
<g clip-path="url(#clip0_98_5428)">
<path d="M27.9957 15.6554C27.9983 15.0797 27.9077 12.9075 27.8386 12.2863C27.0424 5.15632 21.2555 -0.0184326 14.0797 -0.0184326C6.60542 -0.0184326 0.549574 5.74082 0.138734 13.3774C0.129984 13.5441 0.0687344 14.7266 0.0643594 15.4306L0.0621719 15.8221C0.0262695 15.984 0.00439453 16.1511 0.00439453 16.3235V22.193C0.00439453 23.4749 1.04696 24.5174 2.32883 24.5174H4.68827C5.97014 24.5174 7.01312 23.4749 7.01312 22.193V16.3239C7.01312 15.0421 5.96968 13.9995 4.68824 13.9995H2.32839C2.17056 13.9995 2.01314 14.0155 1.85852 14.0472C1.87164 13.7633 1.88346 13.5393 1.88655 13.4714C2.24661 6.77813 7.55042 1.73157 14.0796 1.73157C20.349 1.73157 25.4035 6.25269 26.0991 12.4809C26.1284 12.7408 26.166 13.4014 26.1962 14.0647C26.0269 14.0253 25.8523 13.9995 25.6712 13.9995H23.3393C22.0575 13.9995 21.0149 15.042 21.0149 16.3239V22.1663C21.0149 23.0514 21.518 23.8139 22.2478 24.2059L16.6303 26.4114V26.2687C16.6303 25.7857 16.2383 25.3937 15.7553 25.3937H13.1303C12.6473 25.3937 12.2553 25.7857 12.2553 26.2687V27.1437C12.2553 27.6267 12.6473 28.0187 13.1303 28.0187H15.7553C15.7628 28.0187 15.7693 28.0165 15.7768 28.0165L17.3452 28.0104L26.3564 24.4728C26.4746 24.4238 26.5748 24.3507 26.657 24.2632C27.4458 23.8909 27.9966 23.0947 27.9966 22.1663V16.3239C27.9966 16.1813 27.9791 16.0426 27.9542 15.9074C27.9782 15.8269 27.9953 15.7433 27.9957 15.6554L27.9957 15.6554ZM2.32842 15.7495H4.68791C5.0051 15.7495 5.26276 16.0068 5.26276 16.3239V22.1934C5.26276 22.5106 5.00464 22.7679 4.68786 22.7679H2.32845C2.01126 22.7679 1.75404 22.5106 1.75404 22.1934V16.3239C1.75445 16.0068 2.01167 15.7495 2.32842 15.7495ZM22.7645 16.3239C22.7645 16.0068 23.0218 15.7495 23.339 15.7495H25.6709C25.988 15.7495 26.2457 16.0068 26.2457 16.3239V22.1663C26.2457 22.4835 25.9876 22.7408 25.6708 22.7408H23.3389C23.0218 22.7408 22.7645 22.4835 22.7645 22.1663V16.3239Z" fill="white"/>
</g>
<defs>
<clipPath id="clip0_98_5428">
<rect width="28" height="28" fill="white"/>
</clipPath>
</defs>
</svg>
