<svg width="60" height="59" viewBox="0 0 60 59" fill="none" xmlns="http://www.w3.org/2000/svg">
<rect width="60" height="59" rx="6" fill="#CCDFFF"/>
<path d="M28.4368 45.0534C28.4428 44.9219 28.4754 44.7928 28.5325 44.6738C28.5897 44.5547 28.6703 44.448 28.7697 44.3597C28.8691 44.2715 28.9853 44.2036 29.1116 44.1598C29.2379 44.1161 29.3718 44.0974 29.5055 44.1049C29.6391 44.1124 29.77 44.1459 29.8904 44.2035C30.0108 44.2611 30.1184 44.3416 30.207 44.4404C30.2955 44.5392 30.3633 44.6542 30.4063 44.7789C30.4493 44.9036 30.4667 45.0355 30.4575 45.1668C30.4392 45.4281 30.3169 45.6718 30.1171 45.8451C29.9173 46.0183 29.6561 46.1071 29.3901 46.0921C29.1242 46.0772 28.875 45.9598 28.6965 45.7653C28.518 45.5709 28.4247 45.3151 28.4368 45.0534ZM20.148 43.9767C20.2638 43.8032 20.4449 43.6821 20.6515 43.64C20.8581 43.5978 21.0733 43.6381 21.2497 43.752C21.4261 43.8659 21.5492 44.044 21.5921 44.2472C21.6349 44.4503 21.594 44.6619 21.4782 44.8354C21.4208 44.9212 21.3468 44.9952 21.2604 45.0529C21.174 45.1107 21.0769 45.1512 20.9746 45.172C20.8723 45.1929 20.7668 45.1937 20.6641 45.1745C20.5615 45.1553 20.4637 45.1163 20.3764 45.06C20.289 45.0036 20.2138 44.9308 20.1551 44.8458C20.0964 44.7609 20.0552 44.6654 20.034 44.5648C20.0128 44.4642 20.0119 44.3604 20.0315 44.2595C20.051 44.1586 20.0906 44.0624 20.148 43.9765V43.9767ZM37.9263 43.6699C38.0195 43.6235 38.1212 43.5957 38.2254 43.5879C38.3296 43.5802 38.4343 43.5928 38.5336 43.625C38.6328 43.6571 38.7247 43.7082 38.8038 43.7754C38.8829 43.8425 38.9478 43.9243 38.9947 44.0161C39.0656 44.1543 39.0932 44.31 39.0741 44.4636C39.055 44.6172 38.99 44.7618 38.8873 44.879C38.7846 44.9963 38.6489 45.0809 38.4972 45.1223C38.3456 45.1637 38.1849 45.16 38.0354 45.1115C37.886 45.0631 37.7545 44.9722 37.6576 44.8503C37.5607 44.7284 37.5027 44.5809 37.491 44.4266C37.4793 44.2723 37.5145 44.118 37.5919 43.9833C37.6694 43.8486 37.7858 43.7396 37.9263 43.6699ZM22.0694 39.8361C22.2478 39.5682 22.5272 39.3809 22.846 39.3154C23.1648 39.2499 23.4971 39.3116 23.7696 39.487C24.0422 39.6627 24.2326 39.9376 24.2991 40.2514C24.3656 40.5651 24.3028 40.8919 24.1244 41.1601C23.9449 41.4259 23.6657 41.6111 23.3479 41.6752C23.03 41.7393 22.6992 41.6771 22.4278 41.5022C22.1564 41.3274 21.9664 41.054 21.8992 40.7418C21.8321 40.4297 21.8933 40.1041 22.0694 39.8361ZM35.4305 39.3904C35.5742 39.3183 35.7309 39.2748 35.8918 39.2624C36.0526 39.25 36.2144 39.2688 36.3678 39.3179C36.5212 39.367 36.6633 39.4454 36.7858 39.5485C36.9084 39.6517 37.0091 39.7776 37.0822 39.919C37.192 40.1307 37.236 40.3695 37.2087 40.6056C37.1813 40.8418 37.0838 41.0647 36.9283 41.2467C36.7729 41.4286 36.5663 41.5615 36.3345 41.6286C36.1027 41.6958 35.8559 41.6944 35.6249 41.6244C35.394 41.5545 35.1891 41.4192 35.0359 41.2354C34.8827 41.0516 34.7879 40.8275 34.7635 40.5911C34.739 40.3547 34.7859 40.1164 34.8984 39.9061C35.0109 39.6957 35.1839 39.5226 35.3958 39.4084L35.4305 39.3904ZM28.1269 38.6526C28.2521 38.3994 28.4509 38.1884 28.698 38.0464C28.9452 37.9044 29.2297 37.8377 29.5155 37.8548C30.3107 37.9015 30.9173 38.5726 30.8715 39.3548C30.8594 39.5649 30.8 39.7698 30.6976 39.9546C30.5952 40.1394 30.4524 40.2996 30.2794 40.4235C30.1064 40.5475 29.9076 40.6322 29.6974 40.6714C29.4871 40.7107 29.2706 40.7036 29.0634 40.6506C28.8563 40.5976 28.6637 40.5 28.4996 40.365C28.3354 40.2299 28.2038 40.0607 28.1142 39.8696C28.0246 39.6784 27.9793 39.4701 27.9815 39.2597C27.9837 39.0492 28.0334 38.8419 28.1269 38.6526ZM15.336 36.4512C15.575 36.3343 15.8513 36.3149 16.1047 36.3973C16.3582 36.4797 16.5682 36.6573 16.6892 36.8913C16.8101 37.1253 16.8322 37.3968 16.7505 37.6467C16.6688 37.8966 16.49 38.1047 16.2531 38.2256C16.0161 38.3465 15.7402 38.3704 15.4854 38.2922C15.2305 38.214 15.0175 38.0399 14.8925 37.808C14.7676 37.576 14.7409 37.3049 14.8183 37.0537C14.8957 36.8024 15.0709 36.5915 15.3057 36.4667L15.3359 36.4512H15.336ZM42.4283 36.7343C42.5005 36.6235 42.5943 36.528 42.7043 36.4531C42.8143 36.3783 42.9382 36.3256 43.069 36.2981C43.1999 36.2707 43.3349 36.269 43.4664 36.2932C43.5979 36.3174 43.7232 36.3669 43.835 36.439C43.9469 36.5111 44.0431 36.6043 44.1182 36.7132C44.1932 36.8221 44.2455 36.9445 44.2722 37.0734C44.2988 37.2023 44.2991 37.3351 44.2732 37.4641C44.2473 37.5932 44.1957 37.7159 44.1212 37.8252C43.9729 38.0431 43.743 38.1946 43.4817 38.2467C43.2203 38.2989 42.9486 38.2476 42.7256 38.1038C42.5025 37.9601 42.3462 37.7356 42.2905 37.4792C42.2348 37.2227 42.2844 36.955 42.4283 36.7343ZM25.4591 32.3206C25.9408 32.0649 26.4954 31.9745 27.0351 32.0637C27.5749 32.1529 28.069 32.4165 28.4392 32.8129C28.8094 33.2093 29.0346 33.7158 29.0791 34.2523C29.1235 34.7887 28.9848 35.3244 28.6848 35.7745C28.4617 36.1113 28.1563 36.3877 27.7966 36.5786C27.437 36.7695 27.0344 36.8688 26.6256 36.8674C26.0784 36.867 25.5468 36.6871 25.1152 36.3562C24.6836 36.0253 24.3766 35.5623 24.2427 35.0405C24.1089 34.5186 24.1558 33.9678 24.3761 33.4752C24.5964 32.9826 24.9776 32.5763 25.4591 32.3206ZM31.6729 32.1387C32.231 31.9621 32.8348 31.9873 33.3757 32.2097C33.9165 32.4321 34.3587 32.8372 34.6227 33.3519C35.2298 34.5433 34.7432 35.9933 33.5339 36.5952C33.1905 36.7664 32.8114 36.8569 32.4264 36.8596C31.8402 36.8595 31.2733 36.6536 30.8279 36.279C30.3824 35.9043 30.0876 35.3855 29.9968 34.816C29.9059 34.2465 30.0248 33.6639 30.3321 33.173C30.6394 32.6822 31.1149 32.3154 31.6729 32.1387ZM19.8292 33.4817C19.9687 33.3223 20.1424 33.1953 20.3379 33.1098C20.5333 33.0244 20.7456 32.9827 20.9594 32.9876C21.1732 32.9926 21.3833 33.0441 21.5744 33.1385C21.7655 33.2329 21.933 33.3678 22.0647 33.5335C22.1965 33.6992 22.2892 33.8915 22.3362 34.0967C22.3832 34.3019 22.3833 34.5148 22.3366 34.72C22.2899 34.9252 22.1975 35.1177 22.066 35.2836C21.9345 35.4495 21.7672 35.5846 21.5762 35.6793C21.2775 35.8273 20.9358 35.8689 20.6094 35.7971C20.283 35.7252 19.992 35.5443 19.786 35.2852C19.58 35.026 19.4717 34.7047 19.4795 34.3758C19.4874 34.047 19.611 33.731 19.8292 33.4817ZM36.9183 33.5912C37.3566 32.9346 38.2532 32.7517 38.9208 33.1828C39.5873 33.6147 39.7728 34.4952 39.3361 35.152C38.8978 35.8085 38.0012 35.9914 37.3336 35.5604C36.6659 35.1293 36.4799 34.2478 36.9183 33.5912ZM21.2537 29.3845C21.3305 28.0692 22.4636 27.0564 23.8024 27.1064C25.141 27.1563 26.1928 28.2506 26.1683 29.5678C26.144 30.87 25.076 31.9166 23.7569 31.9413L23.7118 31.9417H23.5774C22.2344 31.8645 21.2052 30.7436 21.2582 29.427L21.2604 29.3831L21.2537 29.3845ZM32.8573 29.3573C32.9352 28.0234 34.0981 27.0042 35.4546 27.0808C35.7768 27.0971 36.0925 27.1763 36.3833 27.3138C36.674 27.4513 36.934 27.6443 37.1481 27.8817C37.4614 28.2266 37.6676 28.6526 37.7422 29.1093C37.8168 29.5659 37.7567 30.034 37.569 30.4581C37.3813 30.8821 37.074 31.2444 36.6833 31.5019C36.2926 31.7594 35.835 31.9014 35.3648 31.911L35.3147 31.9115H35.1722C33.8157 31.8349 32.7792 30.6914 32.8571 29.3575L32.8573 29.3573ZM15.4016 29.4673C15.4201 29.1475 15.567 28.848 15.81 28.6347C16.053 28.4214 16.3722 28.3117 16.6974 28.3298C17.0228 28.3482 17.3274 28.4929 17.5444 28.732C17.7613 28.9711 17.8729 29.2851 17.8545 29.6051C17.8359 29.9249 17.6889 30.2244 17.4457 30.4377C17.2026 30.6509 16.8833 30.7605 16.558 30.7422C16.2327 30.7239 15.9282 30.5793 15.7113 30.3402C15.4944 30.1011 15.3831 29.7871 15.4016 29.4673ZM41.1775 29.4126C41.1976 29.0939 41.3453 28.7961 41.5881 28.5842C41.8309 28.3723 42.1491 28.2635 42.4732 28.2817C42.7973 28.2998 43.101 28.4433 43.3178 28.6809C43.5346 28.9185 43.647 29.2308 43.6303 29.5497C43.6116 29.8696 43.4645 30.1692 43.2214 30.3826C42.9782 30.5959 42.6588 30.7056 42.3334 30.6876C42.0082 30.6692 41.7037 30.5246 41.487 30.2855C41.2702 30.0464 41.1589 29.7325 41.1775 29.4127V29.4126ZM12.059 28.7689L12.0887 28.77C12.193 28.7756 12.2951 28.8013 12.3893 28.8458C12.4834 28.8904 12.5677 28.9527 12.6373 29.0294C12.7069 29.106 12.7603 29.1954 12.7947 29.2924C12.829 29.3894 12.8435 29.4922 12.8373 29.5947C12.8284 29.7476 12.7739 29.8946 12.6806 30.0173C12.5874 30.14 12.4595 30.2331 12.3129 30.2849C12.1663 30.3367 12.0074 30.3449 11.8561 30.3086C11.7048 30.2723 11.5676 30.1931 11.4617 30.0807C11.3558 29.9684 11.2859 29.8279 11.2606 29.6767C11.2352 29.5256 11.2557 29.3705 11.3193 29.2306C11.383 29.0908 11.487 28.9725 11.6186 28.8904C11.7501 28.8083 11.9032 28.766 12.059 28.7689ZM47.0002 28.6882L47.0333 28.6894C47.2439 28.7017 47.4409 28.7955 47.5812 28.9503C47.7215 29.1052 47.7937 29.3084 47.782 29.5154C47.773 29.6685 47.7185 29.8156 47.6252 29.9385C47.5319 30.0614 47.4039 30.1546 47.2572 30.2065C47.1105 30.2584 46.9515 30.2668 46.8 30.2307C46.6484 30.1945 46.5111 30.1153 46.4049 30.003C46.2988 29.8906 46.2285 29.7501 46.2029 29.5989C46.1773 29.4476 46.1975 29.2923 46.2609 29.1522C46.3243 29.0121 46.4282 28.8935 46.5597 28.811C46.6911 28.7285 46.8443 28.6858 47.0002 28.6882ZM26.6042 22.1617C27.0594 22.1596 27.5061 22.2821 27.8945 22.5155C28.2828 22.7489 28.5975 23.0841 28.8031 23.4833C28.9931 23.8523 29.0837 24.263 29.0663 24.6762C29.049 25.0895 28.9242 25.4914 28.7039 25.8437C28.4837 26.196 28.1753 26.4869 27.8081 26.6887C27.441 26.8905 27.0274 26.9963 26.6068 26.9962C26.1507 26.9976 25.7032 26.8738 25.3147 26.6386C24.9263 26.4035 24.6123 26.0664 24.4081 25.6653C24.2203 25.2967 24.1314 24.887 24.1499 24.4751C24.1683 24.0632 24.2935 23.6628 24.5135 23.3118C24.7335 22.9609 25.041 22.671 25.4069 22.4697C25.7728 22.2684 26.185 22.1624 26.6042 22.1617ZM32.4063 22.1446C32.9536 22.1453 33.485 22.3255 33.9164 22.6566C34.3478 22.9876 34.6546 23.4508 34.7882 23.9726C34.9218 24.4944 34.8747 25.0452 34.6542 25.5377C34.4336 26.0302 34.0524 26.4364 33.5708 26.6918C33.0891 26.9473 32.5346 27.0375 31.9949 26.9482C31.4552 26.8589 30.9613 26.5952 30.5912 26.1988C30.2211 25.8023 29.9961 25.2959 29.9516 24.7595C29.9072 24.2232 30.0459 23.6876 30.3459 23.2375C30.5701 22.9015 30.8759 22.6256 31.2356 22.4348C31.5953 22.2441 31.9976 22.1443 32.4063 22.1446ZM19.6946 23.8641C20.1326 23.2073 21.0289 23.0239 21.6968 23.4546C22.3647 23.8851 22.5512 24.7667 22.1135 25.4234C21.6755 26.0801 20.7792 26.2637 20.1113 25.8332C19.9523 25.7309 19.8154 25.5988 19.7083 25.4445C19.6013 25.2901 19.5263 25.1165 19.4876 24.9336C19.4489 24.7507 19.4472 24.5621 19.4828 24.3786C19.5183 24.195 19.5903 24.0202 19.6946 23.8641ZM37.4572 23.3367C37.6268 23.2525 37.8116 23.202 38.001 23.1881C38.1905 23.1742 38.3809 23.1972 38.5613 23.2558C38.7417 23.3143 38.9086 23.4073 39.0524 23.5293C39.1962 23.6514 39.3142 23.8001 39.3995 23.9671C39.7587 24.6686 39.4715 25.5236 38.7583 25.8769C38.0449 26.2302 37.1754 25.9478 36.816 25.2464C36.4568 24.5449 36.7439 23.6899 37.4572 23.3366V23.3367ZM14.9112 21.1916C15.0583 20.9709 15.2886 20.8167 15.5514 20.7629C15.6816 20.7363 15.8158 20.7352 15.9463 20.7595C16.0769 20.7839 16.2013 20.8333 16.3125 20.905C16.4236 20.9767 16.5193 21.0691 16.5941 21.1772C16.6689 21.2852 16.7214 21.4067 16.7484 21.5346C16.7755 21.6626 16.7767 21.7945 16.7519 21.9229C16.7271 22.0513 16.6768 22.1737 16.604 22.283C16.4568 22.5037 16.2265 22.6579 15.9637 22.7117C15.7009 22.7654 15.4271 22.7143 15.2026 22.5696C14.9782 22.4249 14.8213 22.1984 14.7667 21.94C14.712 21.6815 14.764 21.4124 14.9112 21.1916ZM42.7838 20.7889C43.023 20.6738 43.2988 20.656 43.5512 20.7395C43.8037 20.823 44.0125 21.001 44.1324 21.2348C44.2523 21.4687 44.2736 21.7396 44.1917 21.9889C44.1097 22.2381 43.9312 22.4455 43.6948 22.5661C43.4549 22.6848 43.1769 22.705 42.9218 22.6222C42.6668 22.5394 42.4556 22.3605 42.3347 22.1247C42.2142 21.8889 42.1938 21.6158 42.278 21.3653C42.3622 21.1148 42.5441 20.9074 42.7838 20.7887V20.7889ZM28.049 19.6612C28.0947 18.8774 28.778 18.2784 29.5751 18.323C30.3722 18.3676 30.9817 19.0391 30.9366 19.8231C30.8916 20.6069 30.209 21.2065 29.4119 21.1626C28.614 21.1178 28.0039 20.4458 28.049 19.6612ZM22.4942 17.4682C22.6383 17.3969 22.7953 17.3541 22.9561 17.3424C23.117 17.3306 23.2787 17.3502 23.4319 17.3999C23.5851 17.4496 23.7268 17.5284 23.849 17.632C23.9712 17.7356 24.0715 17.8618 24.1441 18.0035C24.2167 18.1451 24.2602 18.2995 24.2721 18.4577C24.2841 18.6159 24.2642 18.7748 24.2136 18.9255C24.1631 19.0761 24.0829 19.2155 23.9776 19.3357C23.8722 19.4558 23.7439 19.5544 23.5998 19.6258C23.3088 19.77 22.9716 19.7946 22.6621 19.6942C22.3527 19.5938 22.0966 19.3767 21.95 19.0906C21.8033 18.8045 21.7783 18.4728 21.8804 18.1686C21.9825 17.8643 22.2033 17.6124 22.4942 17.4682ZM34.9036 17.8558C35.0366 17.6557 35.227 17.4989 35.4507 17.4051C35.6744 17.3114 35.9214 17.285 36.1603 17.3292C36.3993 17.3734 36.6195 17.4863 36.7933 17.6536C36.967 17.8209 37.0864 18.0351 37.1363 18.2691C37.1863 18.5031 37.1646 18.7464 37.0739 18.9683C36.9833 19.1902 36.8278 19.3806 36.6271 19.5156C36.4264 19.6506 36.1895 19.7241 35.9463 19.7267C35.7032 19.7293 35.4647 19.661 35.2611 19.5304C35.1256 19.4437 35.0088 19.3316 34.9175 19.2004C34.8261 19.0692 34.762 18.9217 34.7288 18.7661C34.6956 18.6105 34.694 18.45 34.7239 18.2938C34.7539 18.1376 34.815 17.9888 34.9036 17.8558ZM20.3827 13.9516C20.5706 13.8591 20.7881 13.8434 20.9876 13.908C21.1872 13.9726 21.3527 14.1122 21.448 14.2963C21.5433 14.4804 21.5607 14.6942 21.4963 14.8908C21.4319 15.0875 21.291 15.2511 21.1044 15.346C21.0108 15.3931 20.9086 15.4215 20.8037 15.4296C20.6989 15.4376 20.5935 15.4252 20.4935 15.3931C20.3936 15.3609 20.3011 15.3096 20.2214 15.2421C20.1417 15.1746 20.0764 15.0923 20.0292 14.9998C19.9351 14.8147 19.9195 14.6004 19.9858 14.4039C20.052 14.2074 20.1948 14.0448 20.3827 13.9516ZM37.5525 14.1817C37.6097 14.0957 37.6835 14.0216 37.7698 13.9637C37.8561 13.9057 37.9532 13.8651 38.0554 13.844C38.1577 13.8229 38.2632 13.8219 38.3659 13.8409C38.4685 13.8599 38.5664 13.8987 38.6539 13.9549C38.7413 14.0111 38.8167 14.0837 38.8756 14.1686C38.9345 14.2534 38.9759 14.3488 38.9973 14.4494C39.0187 14.55 39.0198 14.6537 39.0005 14.7547C38.9811 14.8556 38.9417 14.9519 38.8846 15.0379C38.7691 15.2116 38.5882 15.3331 38.3817 15.3756C38.1752 15.4182 37.9599 15.3783 37.7833 15.2648C37.6066 15.1513 37.4831 14.9734 37.4398 14.7703C37.3965 14.5672 37.4371 14.3556 37.5525 14.1819V14.1817ZM29.1462 12.9665C29.2721 12.9213 29.4059 12.9012 29.5398 12.9073C29.6737 12.9134 29.805 12.9456 29.9261 13.0021C30.0473 13.0585 30.1558 13.138 30.2454 13.236C30.3351 13.334 30.404 13.4486 30.4482 13.573C30.4925 13.6974 30.5111 13.8292 30.5032 13.9608C30.4952 14.0924 30.4607 14.2211 30.4017 14.3394C30.3427 14.4578 30.2604 14.5635 30.1595 14.6503C30.0587 14.7371 29.9413 14.8034 29.8142 14.8452C29.5618 14.9283 29.2864 14.9103 29.0475 14.7951C28.8085 14.68 28.6253 14.4769 28.5375 14.2299C28.4497 13.9829 28.4643 13.7119 28.5782 13.4754C28.6921 13.2389 28.8962 13.0561 29.1462 12.9665Z" fill="#0D68FF"/>
</svg>
