<svg width="60" height="59" viewBox="0 0 60 59" fill="none" xmlns="http://www.w3.org/2000/svg">
<rect width="60" height="59" rx="8" fill="#FF9C07" fill-opacity="0.2"/>
<path d="M37.0749 28.6339C38.9028 27.7147 40.0661 26.0807 39.796 23.3641C39.4428 19.6466 36.3381 18.4007 32.2253 18.0535V12.9062H29.0265V17.9105C28.1956 17.9105 27.3439 17.9309 26.4923 17.9513V12.9062H23.2934V18.0535C22.1173 18.0884 20.7475 18.0714 16.875 18.0535V21.4032C19.4006 21.3593 20.7257 21.1997 21.0293 22.7921V36.8857C20.8365 38.1492 19.8083 37.9672 17.5189 37.9274L16.8751 41.6653C22.7076 41.6653 23.2935 41.6857 23.2935 41.6857V46.0938H26.4924V41.747C27.3647 41.7674 28.2164 41.7674 29.0265 41.7674V46.0938H32.2254V41.6857C37.5844 41.3997 41.167 40.0721 41.6447 35.1087C42.0186 31.1258 40.1075 29.3487 37.0749 28.6339ZM26.5547 21.6279C28.3618 21.6279 34.0117 21.0765 34.0117 24.7734C34.0117 28.3071 28.3619 27.8985 26.5547 27.8985V21.6279ZM26.5547 37.9478V31.0441C28.7149 31.0441 35.3301 30.4517 35.3301 34.496C35.3301 38.3972 28.7149 37.9478 26.5547 37.9478Z" fill="#FFB849"/>
</svg>
