<svg width="34" height="34" viewBox="0 0 34 34" fill="none" xmlns="http://www.w3.org/2000/svg">
<path fill-rule="evenodd" clip-rule="evenodd" d="M3.3999 13.6C3.3999 13.1491 3.57901 12.7167 3.89782 12.3979C4.21663 12.0791 4.64903 11.9 5.0999 11.9H22.6235C23.0744 11.9 23.5068 12.0791 23.8256 12.3979C24.1444 12.7167 24.3235 13.1491 24.3235 13.6C24.3235 14.0508 24.1444 14.4832 23.8256 14.8021C23.5068 15.1209 23.0744 15.3 22.6235 15.3H5.0999C4.64903 15.3 4.21663 15.1209 3.89782 14.8021C3.57901 14.4832 3.3999 14.0508 3.3999 13.6ZM3.3999 6.79998C3.3999 6.34911 3.57901 5.91671 3.89782 5.59789C4.21663 5.27908 4.64903 5.09998 5.0999 5.09998H28.8999C29.3508 5.09998 29.7832 5.27908 30.102 5.59789C30.4208 5.91671 30.5999 6.34911 30.5999 6.79998C30.5999 7.25084 30.4208 7.68324 30.102 8.00206C29.7832 8.32087 29.3508 8.49998 28.8999 8.49998H5.0999C4.64903 8.49998 4.21663 8.32087 3.89782 8.00206C3.57901 7.68324 3.3999 7.25084 3.3999 6.79998ZM3.3999 20.4C3.3999 19.9491 3.57901 19.5167 3.89782 19.1979C4.21663 18.8791 4.64903 18.7 5.0999 18.7H28.8999C29.3508 18.7 29.7832 18.8791 30.102 19.1979C30.4208 19.5167 30.5999 19.9491 30.5999 20.4C30.5999 20.8508 30.4208 21.2832 30.102 21.6021C29.7832 21.9209 29.3508 22.1 28.8999 22.1H5.0999C4.64903 22.1 4.21663 21.9209 3.89782 21.6021C3.57901 21.2832 3.3999 20.8508 3.3999 20.4ZM3.3999 27.2C3.3999 26.7491 3.57901 26.3167 3.89782 25.9979C4.21663 25.6791 4.64903 25.5 5.0999 25.5H22.6235C23.0744 25.5 23.5068 25.6791 23.8256 25.9979C24.1444 26.3167 24.3235 26.7491 24.3235 27.2C24.3235 27.6508 24.1444 28.0832 23.8256 28.4021C23.5068 28.7209 23.0744 28.9 22.6235 28.9H5.0999C4.64903 28.9 4.21663 28.7209 3.89782 28.4021C3.57901 28.0832 3.3999 27.6508 3.3999 27.2Z" fill="white"/>
</svg>
