<svg width="28" height="28" viewBox="0 0 28 28" fill="none" xmlns="http://www.w3.org/2000/svg">
<g clip-path="url(#clip0_98_5411)">
<path d="M14.0001 7.00001V9.08835C14.0001 9.61334 14.6301 9.87001 14.9917 9.49668L18.2467 6.24168C18.4801 6.00835 18.4801 5.64668 18.2467 5.41335L14.9917 2.15835C14.6301 1.79668 14.0001 2.05335 14.0001 2.57835V4.66668C8.84341 4.66668 4.66675 8.84335 4.66675 14C4.66675 15.2133 4.90008 16.38 5.33175 17.4417C5.64675 18.2233 6.65008 18.4333 7.24508 17.8383C7.56008 17.5233 7.68842 17.045 7.51341 16.625C7.17508 15.82 7.00008 14.9217 7.00008 14C7.00008 10.1383 10.1384 7.00001 14.0001 7.00001ZM20.7551 10.1617C20.4401 10.4767 20.3117 10.9667 20.4867 11.375C20.8134 12.1917 21.0001 13.0783 21.0001 14C21.0001 17.8617 17.8617 21 14.0001 21V18.9117C14.0001 18.3867 13.3701 18.13 13.0084 18.5033L9.75341 21.7583C9.52008 21.9917 9.52008 22.3533 9.75341 22.5867L13.0084 25.8417C13.3701 26.2033 14.0001 25.9467 14.0001 25.4333V23.3333C19.1567 23.3333 23.3334 19.1567 23.3334 14C23.3334 12.7867 23.1001 11.62 22.6684 10.5583C22.3534 9.77668 21.3501 9.56668 20.7551 10.1617Z" fill="white"/>
</g>
<defs>
<clipPath id="clip0_98_5411">
<rect width="28" height="28" fill="white"/>
</clipPath>
</defs>
</svg>
