<svg width="56" height="20" viewBox="0 0 56 20" fill="none" xmlns="http://www.w3.org/2000/svg">
<g clip-path="url(#clip0_74_8900)">
<path d="M-1 20L-1 21H0H7.81781L8.0299 21.6049L8.21189 21L56 21H57V20L57 5.13367V2.38596L55.2339 4.49092L54.2467 5.66751L53.7946 6.20644L53.5315 6.05736L52.9271 5.71479L52.3952 6.16169L52.0068 6.48803L51.6372 6.21933L50.6254 5.48382L50.1307 6.63264L49.161 8.88442L49.0255 9.09567L48.8729 8.86843L48.1946 7.85817L47.3349 8.71947L46.8522 9.2032L46.6541 9.09973L45.7691 8.14662L44.7646 7.06487L44.1326 8.39891L44.0122 8.65303L43.6341 7.893L42.8176 9.19393L42.1955 8.6332L41.6244 9.85972L41.2813 10.5967L40.9847 10.2473L40.4837 10.9068L39.8506 10.1606L39.231 11.2829L38.9391 10.4167L38.762 9.89089L38.2221 9.76292L37.205 9.52185L36.244 9.29407L36.0365 10.1232L36.0321 10.1167L35.1851 11.1462L35.0426 11.3193L34.8075 10.9766L34.0124 9.81739L33.1781 10.9487L33.0252 11.1561L32.8332 10.8761L32.2311 9.99845L31.3926 10.654L30.9335 11.0129L30.5213 10.764L29.5645 10.1859L29.0962 11.201L28.5624 12.3583L28.5171 12.331L27.7393 11.8611L27.1973 12.5905L26.5332 13.4844L26.0866 13.4571L25.546 13.4241L25.223 13.8588L25.0738 14.0596L24.8777 13.7717L23.9979 12.4801L23.1938 13.8202L22.8857 14.3337L22.7885 14.2263L22.373 13.7671L21.7768 13.9344L20.7747 14.2157L19.9683 14.442L19.6038 14.3952L18.8396 13.2534L18.0843 12.1251L17.2308 13.181L16.5648 14.005L16.1017 13.9455L15.5282 13.8719L15.1783 14.3322L15.0402 14.5138L14.8318 14.2015L14.053 13.0345L13.2039 14.1514L13.0658 14.333L12.8994 14.0836L12.4229 13.0647L11.3139 10.6929L10.8053 12.3831L10.2968 11.2955L9.5424 13.8028L9.1462 15.1196L8.97312 15.2222L8.90461 15.2628L8.26259 13.8898L7.65974 15.8935L7.39773 15.1462L6.48127 12.5324L5.9802 13.8812L5.47914 12.4521L4.51453 15.0485L4.27686 15.6882L3.98694 15.665L3.91684 15.7565L3.33751 15.0593L3.01017 15.5865L2.90818 15.3203L1.90623 12.7048L1.02513 15.3634L0.713759 16.3029L0.294175 16.3883L-0.199417 16.4888L-1 16.6517L-1 17.4687L-1 20Z" fill="white" stroke="#22C55E" stroke-width="2"/>
<mask id="path-2-outside-1_74_8900" maskUnits="userSpaceOnUse" x="-2" y="3.13892" width="60" height="19" fill="black">
<rect fill="white" x="-2" y="3.13892" width="60" height="19"/>
<path fill-rule="evenodd" clip-rule="evenodd" d="M56 20.0052V17.9776C56 17.6845 55.7936 17.4319 55.5064 17.3735L55.0128 17.273L54.7827 17.2262C54.6197 17.193 54.487 17.0752 54.4346 16.9174C54.2974 16.5033 53.7157 16.4924 53.5596 16.8998C53.5414 16.9473 53.5155 16.9917 53.4829 17.0308L53.3375 17.2059C53.1904 17.3829 52.9131 17.3638 52.7917 17.1682L52.7589 17.1155C52.6536 16.9459 52.4131 16.9294 52.2855 17.0829C52.1656 17.2273 51.9426 17.2228 51.8284 17.0738L51.6781 16.8776C51.5984 16.7734 51.4712 16.7169 51.3405 16.7273C51.1681 16.7412 51.0076 16.6388 50.9474 16.4767L50.8118 16.1118C50.7226 15.8719 50.3822 15.875 50.2975 16.1165L50.285 16.1522C50.2046 16.3817 49.8812 16.3846 49.7965 16.1567C49.7118 15.9288 49.3884 15.9318 49.3079 16.1612L49.128 16.6742C49.0775 16.8184 48.9467 16.9193 48.7943 16.9315C48.642 16.9437 48.5112 17.0446 48.4606 17.1888L48.358 17.4815C48.2586 17.7649 47.8547 17.7558 47.7682 17.4682L47.7071 17.2653C47.6465 17.0637 47.3691 17.0436 47.2799 17.2342C47.1908 17.4249 46.9133 17.4047 46.8527 17.2032L46.583 16.3068C46.5406 16.166 46.4468 16.0461 46.3203 15.9711L46.2054 15.903C46.0788 15.828 45.985 15.7082 45.9426 15.5673L45.673 14.671C45.6123 14.4695 45.3349 14.4493 45.2457 14.6399C45.1566 14.8306 44.8791 14.8104 44.8185 14.6089L44.7372 14.3386C44.648 14.0423 44.2401 14.0126 44.1091 14.2929L43.9886 14.5505C43.9791 14.5708 43.9681 14.5904 43.9556 14.6091L43.4399 15.3819C43.2182 15.7141 42.7353 15.729 42.4936 15.4111C42.2519 15.0932 41.769 15.108 41.5473 15.4402L41.5064 15.5015C41.2647 15.8637 40.7382 15.8799 40.4747 15.5333L40.3137 15.3216C40.1355 15.0871 39.8456 14.9658 39.5535 15.0033L39.4763 15.0132C39.1856 15.0505 38.8963 14.9344 38.7121 14.7065C38.3544 14.2639 37.6703 14.2947 37.3538 14.7676L37.2272 14.9567C37.0665 15.1967 36.81 15.3555 36.5235 15.3923L36.159 15.4391C36.0259 15.4562 35.8907 15.4463 35.7614 15.41L34.9551 15.1837L34.4055 15.0295C34.1283 14.9517 33.8309 15.0375 33.6377 15.251L33.5562 15.341C33.255 15.674 32.7176 15.6214 32.4866 15.2364L32.4238 15.1317C32.2019 14.762 31.6716 14.7467 31.4289 15.103C31.2002 15.4388 30.7087 15.4488 30.4664 15.1228L30.249 14.8301C30.0777 14.5995 29.8015 14.471 29.5147 14.4886L29.4808 14.4906C29.1728 14.5094 28.8762 14.3715 28.6923 14.1238L28.3131 13.6135C28.1355 13.3746 27.8055 13.3097 27.5507 13.4636C27.2558 13.6417 26.8716 13.5239 26.7273 13.2111L26.2991 12.2828C26.1373 11.932 25.7065 11.7999 25.3758 11.9996C25.1457 12.1387 24.8536 12.1211 24.6418 11.9555L24.5839 11.9102C24.2628 11.6592 23.7966 11.7311 23.5661 12.0672L23.4747 12.2004C23.2445 12.5359 22.7522 12.5443 22.5107 12.2168C22.2692 11.8893 21.7768 11.8978 21.5467 12.2333L21.4688 12.3469C21.2491 12.6671 20.7837 12.6874 20.537 12.3875L20.2574 12.0477C20.1501 11.9173 19.9475 11.9264 19.8523 12.066C19.7291 12.2466 19.4502 12.1968 19.3971 11.9847L19.1818 11.1243C19.0953 10.7783 18.7466 10.5663 18.3995 10.6485L18.3744 10.6545C18.1468 10.7084 17.9632 10.8759 17.8885 11.0975L17.4017 12.5425C17.2446 13.0088 16.6083 13.066 16.3705 12.6353L16.1757 12.2825C16.0785 12.1063 15.835 12.082 15.7048 12.2354C15.586 12.3755 15.3679 12.3697 15.2568 12.2234L15.1801 12.1224C15.0734 11.982 14.8641 11.9763 14.7499 12.1108C14.6197 12.2643 14.3743 12.2313 14.2893 12.0488L13.9701 11.3632L13.6205 10.6124C13.5452 10.4507 13.3349 10.4079 13.2024 10.5274C13.08 10.6377 12.8877 10.6109 12.8001 10.4713L12.7444 10.3825C12.6229 10.1889 12.3362 10.203 12.2343 10.4077C12.1255 10.6265 11.8123 10.6235 11.7077 10.4027L11.3821 9.71546C11.1816 9.29235 10.6173 9.20534 10.2987 9.54844L10.0662 9.79886C9.99693 9.87344 9.91544 9.93564 9.82524 9.98278L9.43293 10.1878C9.15122 10.335 8.80652 10.2821 8.58198 10.0571L8.52108 9.99606C8.22915 9.70355 7.74271 9.75066 7.51233 10.0938C7.24914 10.4857 6.67048 10.4796 6.41566 10.0821L5.9972 9.42939C5.96778 9.3835 5.94216 9.33528 5.9206 9.28521L5.25239 7.73361C5.09784 7.37473 4.65028 7.25194 4.33423 7.4817C4.10774 7.64636 3.79819 7.6355 3.58379 7.45537L3.35678 7.26465C3.11915 7.06501 2.78246 7.03409 2.51244 7.18713C2.20066 7.36385 1.80717 7.29284 1.57683 7.01829L0.987179 6.31551C0.651749 5.91572 3.8147e-06 6.15291 3.8147e-06 6.67479V20.0052H56Z"/>
</mask>
<path fill-rule="evenodd" clip-rule="evenodd" d="M56 20.0052V17.9776C56 17.6845 55.7936 17.4319 55.5064 17.3735L55.0128 17.273L54.7827 17.2262C54.6197 17.193 54.487 17.0752 54.4346 16.9174C54.2974 16.5033 53.7157 16.4924 53.5596 16.8998C53.5414 16.9473 53.5155 16.9917 53.4829 17.0308L53.3375 17.2059C53.1904 17.3829 52.9131 17.3638 52.7917 17.1682L52.7589 17.1155C52.6536 16.9459 52.4131 16.9294 52.2855 17.0829C52.1656 17.2273 51.9426 17.2228 51.8284 17.0738L51.6781 16.8776C51.5984 16.7734 51.4712 16.7169 51.3405 16.7273C51.1681 16.7412 51.0076 16.6388 50.9474 16.4767L50.8118 16.1118C50.7226 15.8719 50.3822 15.875 50.2975 16.1165L50.285 16.1522C50.2046 16.3817 49.8812 16.3846 49.7965 16.1567C49.7118 15.9288 49.3884 15.9318 49.3079 16.1612L49.128 16.6742C49.0775 16.8184 48.9467 16.9193 48.7943 16.9315C48.642 16.9437 48.5112 17.0446 48.4606 17.1888L48.358 17.4815C48.2586 17.7649 47.8547 17.7558 47.7682 17.4682L47.7071 17.2653C47.6465 17.0637 47.3691 17.0436 47.2799 17.2342C47.1908 17.4249 46.9133 17.4047 46.8527 17.2032L46.583 16.3068C46.5406 16.166 46.4468 16.0461 46.3203 15.9711L46.2054 15.903C46.0788 15.828 45.985 15.7082 45.9426 15.5673L45.673 14.671C45.6123 14.4695 45.3349 14.4493 45.2457 14.6399C45.1566 14.8306 44.8791 14.8104 44.8185 14.6089L44.7372 14.3386C44.648 14.0423 44.2401 14.0126 44.1091 14.2929L43.9886 14.5505C43.9791 14.5708 43.9681 14.5904 43.9556 14.6091L43.4399 15.3819C43.2182 15.7141 42.7353 15.729 42.4936 15.4111C42.2519 15.0932 41.769 15.108 41.5473 15.4402L41.5064 15.5015C41.2647 15.8637 40.7382 15.8799 40.4747 15.5333L40.3137 15.3216C40.1355 15.0871 39.8456 14.9658 39.5535 15.0033L39.4763 15.0132C39.1856 15.0505 38.8963 14.9344 38.7121 14.7065C38.3544 14.2639 37.6703 14.2947 37.3538 14.7676L37.2272 14.9567C37.0665 15.1967 36.81 15.3555 36.5235 15.3923L36.159 15.4391C36.0259 15.4562 35.8907 15.4463 35.7614 15.41L34.9551 15.1837L34.4055 15.0295C34.1283 14.9517 33.8309 15.0375 33.6377 15.251L33.5562 15.341C33.255 15.674 32.7176 15.6214 32.4866 15.2364L32.4238 15.1317C32.2019 14.762 31.6716 14.7467 31.4289 15.103C31.2002 15.4388 30.7087 15.4488 30.4664 15.1228L30.249 14.8301C30.0777 14.5995 29.8015 14.471 29.5147 14.4886L29.4808 14.4906C29.1728 14.5094 28.8762 14.3715 28.6923 14.1238L28.3131 13.6135C28.1355 13.3746 27.8055 13.3097 27.5507 13.4636C27.2558 13.6417 26.8716 13.5239 26.7273 13.2111L26.2991 12.2828C26.1373 11.932 25.7065 11.7999 25.3758 11.9996C25.1457 12.1387 24.8536 12.1211 24.6418 11.9555L24.5839 11.9102C24.2628 11.6592 23.7966 11.7311 23.5661 12.0672L23.4747 12.2004C23.2445 12.5359 22.7522 12.5443 22.5107 12.2168C22.2692 11.8893 21.7768 11.8978 21.5467 12.2333L21.4688 12.3469C21.2491 12.6671 20.7837 12.6874 20.537 12.3875L20.2574 12.0477C20.1501 11.9173 19.9475 11.9264 19.8523 12.066C19.7291 12.2466 19.4502 12.1968 19.3971 11.9847L19.1818 11.1243C19.0953 10.7783 18.7466 10.5663 18.3995 10.6485L18.3744 10.6545C18.1468 10.7084 17.9632 10.8759 17.8885 11.0975L17.4017 12.5425C17.2446 13.0088 16.6083 13.066 16.3705 12.6353L16.1757 12.2825C16.0785 12.1063 15.835 12.082 15.7048 12.2354C15.586 12.3755 15.3679 12.3697 15.2568 12.2234L15.1801 12.1224C15.0734 11.982 14.8641 11.9763 14.7499 12.1108C14.6197 12.2643 14.3743 12.2313 14.2893 12.0488L13.9701 11.3632L13.6205 10.6124C13.5452 10.4507 13.3349 10.4079 13.2024 10.5274C13.08 10.6377 12.8877 10.6109 12.8001 10.4713L12.7444 10.3825C12.6229 10.1889 12.3362 10.203 12.2343 10.4077C12.1255 10.6265 11.8123 10.6235 11.7077 10.4027L11.3821 9.71546C11.1816 9.29235 10.6173 9.20534 10.2987 9.54844L10.0662 9.79886C9.99693 9.87344 9.91544 9.93564 9.82524 9.98278L9.43293 10.1878C9.15122 10.335 8.80652 10.2821 8.58198 10.0571L8.52108 9.99606C8.22915 9.70355 7.74271 9.75066 7.51233 10.0938C7.24914 10.4857 6.67048 10.4796 6.41566 10.0821L5.9972 9.42939C5.96778 9.3835 5.94216 9.33528 5.9206 9.28521L5.25239 7.73361C5.09784 7.37473 4.65028 7.25194 4.33423 7.4817C4.10774 7.64636 3.79819 7.6355 3.58379 7.45537L3.35678 7.26465C3.11915 7.06501 2.78246 7.03409 2.51244 7.18713C2.20066 7.36385 1.80717 7.29284 1.57683 7.01829L0.987179 6.31551C0.651749 5.91572 3.8147e-06 6.15291 3.8147e-06 6.67479V20.0052H56Z" fill="white"/>
<path d="M56 20.0052H58V22.0052H56V20.0052ZM3.8147e-06 20.0052V22.0052H-2V20.0052H3.8147e-06ZM13.9701 11.3632L12.157 12.2074L12.157 12.2074L13.9701 11.3632ZM34.9551 15.1837L34.4147 17.1093L34.4147 17.1093L34.9551 15.1837ZM55.0128 17.273L54.614 19.2329L54.614 19.2329L55.0128 17.273ZM19.3971 11.9847L17.457 12.4702L19.3971 11.9847ZM15.2568 12.2234L13.6643 13.4333L15.2568 12.2234ZM14.2893 12.0488L12.4762 12.893L14.2893 12.0488ZM13.6205 10.6124L11.8074 11.4566L13.6205 10.6124ZM12.7444 10.3825L14.4384 9.31934L12.7444 10.3825ZM23.4747 12.2004L21.8254 11.069L23.4747 12.2004ZM21.4688 12.3469L23.118 13.4782L21.4688 12.3469ZM20.537 12.3875L18.9926 13.6583L20.537 12.3875ZM54.7827 17.2262L55.1815 15.2664L54.7827 17.2262ZM53.4829 17.0308L51.9447 15.7526L53.4829 17.0308ZM52.7589 17.1155L54.458 16.0605L52.7589 17.1155ZM52.7917 17.1682L54.4907 16.1132L52.7917 17.1682ZM51.6781 16.8776L53.266 15.6615L51.6781 16.8776ZM50.8118 16.1118L48.937 16.8083L50.8118 16.1118ZM51.3405 16.7273L51.5003 18.7209L51.3405 16.7273ZM49.3079 16.1612L51.1953 16.823L49.3079 16.1612ZM48.7943 16.9315L48.9542 18.9251L48.7943 16.9315ZM46.583 16.3068L44.6678 16.8831L46.583 16.3068ZM46.3203 15.9711L45.3007 17.6917L46.3203 15.9711ZM47.7071 17.2653L49.6223 16.689L47.7071 17.2653ZM46.8527 17.2032L44.9375 17.7794L46.8527 17.2032ZM45.673 14.671L43.7578 15.2472L45.673 14.671ZM44.7372 14.3386L42.822 14.9148L44.7372 14.3386ZM44.1091 14.2929L45.9208 15.1401L44.1091 14.2929ZM37.2272 14.9567L35.5652 13.8442L37.2272 14.9567ZM36.5235 15.3923L36.2688 13.4086L36.5235 15.3923ZM33.5562 15.341L35.0393 16.6828L33.5562 15.341ZM32.4866 15.2364L30.7716 16.2654L32.4866 15.2364ZM30.4664 15.1228L32.0718 13.93L30.4664 15.1228ZM29.4808 14.4906L29.3589 12.4943L29.4808 14.4906ZM28.6923 14.1238L30.2976 12.931L28.6923 14.1238ZM24.6418 11.9555L25.8736 10.3799L24.6418 11.9555ZM21.5467 12.2333L19.8974 11.102L21.5467 12.2333ZM22.5107 12.2168L24.1203 11.0298L22.5107 12.2168ZM18.3995 10.6485L18.8608 12.5946L18.3995 10.6485ZM19.1818 11.1243L17.2417 11.6098L19.1818 11.1243ZM17.4017 12.5425L15.5063 11.904L17.4017 12.5425ZM16.3705 12.6353L18.1214 11.6687L16.3705 12.6353ZM14.7499 12.1108L13.2249 10.8169L14.7499 12.1108ZM15.1801 12.1224L16.7726 10.9125L15.1801 12.1224ZM12.8001 10.4713L14.4941 9.40815L12.8001 10.4713ZM13.2024 10.5274L11.8634 9.04175L13.2024 10.5274ZM11.3821 9.71546L9.57468 10.5718L11.3821 9.71546ZM9.43293 10.1878L8.50665 8.41522L9.43293 10.1878ZM8.58198 10.0571L9.99757 8.64424L8.58198 10.0571ZM6.41566 10.0821L8.09936 9.00268L6.41566 10.0821ZM3.35678 7.26465L4.6433 5.73335L3.35678 7.26465ZM5.25239 7.73361L3.41549 8.52468L5.25239 7.73361ZM2.51244 7.18713L1.52626 5.44718L2.51244 7.18713ZM1.57683 7.01829L3.10898 5.73279L1.57683 7.01829ZM5.9206 9.28521L4.0837 10.0763L5.9206 9.28521ZM5.9972 9.42939L4.31351 10.5088L5.9972 9.42939ZM53.5596 16.8998L55.4272 17.6153L53.5596 16.8998ZM33.6377 15.251L32.1546 13.9092L33.6377 15.251ZM34.4055 15.0295L33.8651 16.9551L34.4055 15.0295ZM29.5147 14.4886L29.6366 16.4848L29.5147 14.4886ZM30.249 14.8301L28.6436 16.0229L30.249 14.8301ZM25.3758 11.9996L26.41 13.7115L25.3758 11.9996ZM26.2991 12.2828L24.483 13.1206L26.2991 12.2828ZM17.8885 11.0975L15.9932 10.459L17.8885 11.0975ZM18.3744 10.6545L17.9131 8.70841L18.3744 10.6545ZM9.82524 9.98278L8.89896 8.21021L9.82524 9.98278ZM10.0662 9.79886L11.5318 11.1598L10.0662 9.79886ZM4.33423 7.4817L5.51027 9.0994L4.33423 7.4817ZM3.58379 7.45537L2.29728 8.98667L3.58379 7.45537ZM7.51233 10.0938L5.85193 8.97882L7.51233 10.0938ZM8.52108 9.99606L7.10549 11.4089L8.52108 9.99606ZM11.7077 10.4027L9.90028 11.259L11.7077 10.4027ZM12.2343 10.4077L10.4437 9.51692L12.2343 10.4077ZM16.1757 12.2825L17.9266 11.3158L16.1757 12.2825ZM15.7048 12.2354L17.2298 13.5294L15.7048 12.2354ZM20.2574 12.0477L18.713 13.3185L20.2574 12.0477ZM19.8523 12.066L18.2001 10.9389L19.8523 12.066ZM24.5839 11.9102L25.8157 10.3346L24.5839 11.9102ZM23.5661 12.0672L25.2153 13.1985L23.5661 12.0672ZM28.3131 13.6135L26.7077 14.8063L28.3131 13.6135ZM31.4289 15.103L29.776 13.977L31.4289 15.103ZM32.4238 15.1317L30.7088 16.1607L32.4238 15.1317ZM35.7614 15.41L35.221 17.3356L35.7614 15.41ZM36.159 15.4391L36.4137 17.4228L36.159 15.4391ZM39.5535 15.0033L39.2988 13.0195L39.5535 15.0033ZM40.3137 15.3216L41.9059 14.1112L40.3137 15.3216ZM43.9556 14.6091L45.6192 15.7193L43.9556 14.6091ZM43.9886 14.5505L45.8004 15.3977L43.9886 14.5505ZM47.7682 17.4682L49.6834 16.892L47.7682 17.4682ZM48.358 17.4815L46.4707 16.8197L48.358 17.4815ZM45.9426 15.5673L44.0274 16.1435L45.9426 15.5673ZM46.2054 15.903L47.2249 14.1824L46.2054 15.903ZM52.2855 17.0829L53.8238 18.3611L52.2855 17.0829ZM41.5473 15.4402L43.2109 16.5504L41.5473 15.4402ZM42.4936 15.4111L44.0857 14.2007L42.4936 15.4111ZM39.4763 15.0132L39.2216 13.0295L39.4763 15.0132ZM55.5064 17.3735L55.1076 19.3333L55.5064 17.3735ZM54 20.0052V17.9776H58V20.0052H54ZM2 6.67479V20.0052H-2V6.67479H2ZM3.8147e-06 18.0052H56V22.0052H3.8147e-06V18.0052ZM4.0837 10.0763L3.41549 8.52468L7.08929 6.94254L7.7575 8.49414L4.0837 10.0763ZM2.29728 8.98667L2.07027 8.79595L4.6433 5.73335L4.87031 5.92407L2.29728 8.98667ZM0.0446739 8.3038L-0.544971 7.60101L2.51933 5.03001L3.10898 5.73279L0.0446739 8.3038ZM4.73197 11.1615L4.31351 10.5088L7.6809 8.34996L8.09936 9.00268L4.73197 11.1615ZM10.7515 11.7553L10.3592 11.9604L8.50665 8.41522L8.89896 8.21021L10.7515 11.7553ZM7.16639 11.4699L7.10549 11.4089L9.93667 8.58322L9.99757 8.64424L7.16639 11.4699ZM9.90028 11.259L9.57468 10.5718L13.1895 8.85915L13.5151 9.54638L9.90028 11.259ZM11.7643 10.9093L11.5318 11.1598L8.60059 8.43796L8.83312 8.18754L11.7643 10.9093ZM19.7838 11.7361L19.297 13.1811L15.5063 11.904L15.9932 10.459L19.7838 11.7361ZM14.6196 13.602L14.4248 13.2491L17.9266 11.3158L18.1214 11.6687L14.6196 13.602ZM18.8608 12.5946L18.8357 12.6006L17.9131 8.70841L17.9383 8.70245L18.8608 12.5946ZM23.4099 13.5311L23.352 13.4858L25.8157 10.3346L25.8736 10.3799L23.4099 13.5311ZM24.9113 14.0489L24.483 13.1206L28.1152 11.445L28.5434 12.3733L24.9113 14.0489ZM29.6366 16.4848L29.6026 16.4869L29.3589 12.4943L29.3928 12.4923L29.6366 16.4848ZM27.0869 15.3166L26.7077 14.8063L29.9185 12.4207L30.2976 12.931L27.0869 15.3166ZM28.8611 16.3156L28.6436 16.0229L31.8544 13.6373L32.0718 13.93L28.8611 16.3156ZM35.1207 16.5928L35.0393 16.6828L32.0732 13.9992L32.1546 13.9092L35.1207 16.5928ZM30.7716 16.2654L30.7088 16.1607L34.1387 14.1026L34.2016 14.2073L30.7716 16.2654ZM35.221 17.3356L34.4147 17.1093L35.4956 13.2581L36.3019 13.4844L35.221 17.3356ZM34.4147 17.1093L33.8651 16.9551L34.9459 13.1039L35.4956 13.2581L34.4147 17.1093ZM39.0158 15.8801L38.8892 16.0692L35.5652 13.8442L35.6917 13.6551L39.0158 15.8801ZM36.7782 17.376L36.4137 17.4228L35.9043 13.4554L36.2688 13.4086L36.7782 17.376ZM39.8082 16.987L39.731 16.9969L39.2216 13.0295L39.2988 13.0195L39.8082 16.987ZM43.2109 16.5504L43.17 16.6116L39.8428 14.3913L39.8837 14.3301L43.2109 16.5504ZM38.8825 16.7437L38.7216 16.532L41.9059 14.1112L42.0668 14.3228L38.8825 16.7437ZM45.6192 15.7193L45.1035 16.4921L41.7763 14.2718L42.2921 13.4989L45.6192 15.7193ZM42.9033 15.1851L42.822 14.9148L46.6524 13.7624L46.7337 14.0327L42.9033 15.1851ZM45.9208 15.1401L45.8004 15.3977L42.1769 13.7033L42.2974 13.4458L45.9208 15.1401ZM44.0274 16.1435L43.7578 15.2472L47.5881 14.0948L47.8578 14.9911L44.0274 16.1435ZM45.853 18.0445L45.7919 17.8415L49.6223 16.689L49.6834 16.892L45.853 18.0445ZM44.9375 17.7794L44.6678 16.8831L48.4982 15.7306L48.7679 16.6269L44.9375 17.7794ZM45.3007 17.6917L45.1858 17.6237L47.2249 14.1824L47.3398 14.2505L45.3007 17.6917ZM50.348 17.8505L50.2454 18.1433L46.4707 16.8197L46.5733 16.527L50.348 17.8505ZM51.1953 16.823L51.0154 17.336L47.2407 16.0125L47.4206 15.4995L51.1953 16.823ZM49.0726 17.1733L48.937 16.8083L52.6866 15.4153L52.8222 15.7802L49.0726 17.1733ZM52.1849 16.7783L52.1724 16.8139L48.3977 15.4904L48.4102 15.4548L52.1849 16.7783ZM50.2406 18.2898L50.0903 18.0936L53.266 15.6615L53.4163 15.8577L50.2406 18.2898ZM51.0926 18.2233L51.0598 18.1706L54.458 16.0605L54.4907 16.1132L51.0926 18.2233ZM55.0212 18.309L54.8757 18.4841L51.7992 15.9277L51.9447 15.7526L55.0212 18.309ZM55.1076 19.3333L54.614 19.2329L55.4117 15.3132L55.9052 15.4137L55.1076 19.3333ZM54.614 19.2329L54.3839 19.186L55.1815 15.2664L55.4117 15.3132L54.614 19.2329ZM23.1959 13.3646L23.118 13.4782L19.8195 11.2155L19.8974 11.102L23.1959 13.3646ZM18.9926 13.6583L18.713 13.3185L21.8018 10.777L22.0814 11.1168L18.9926 13.6583ZM25.2153 13.1985L25.124 13.3317L21.8254 11.069L21.9168 10.9358L25.2153 13.1985ZM11.1061 11.5345L11.0504 11.4457L14.4384 9.31934L14.4941 9.40815L11.1061 11.5345ZM12.157 12.2074L11.8074 11.4566L15.4336 9.76823L15.7832 10.519L12.157 12.2074ZM12.4762 12.893L12.157 12.2074L15.7832 10.519L16.1024 11.2046L12.4762 12.893ZM13.6643 13.4333L13.5876 13.3324L16.7726 10.9125L16.8493 11.0134L13.6643 13.4333ZM17.457 12.4702L17.2417 11.6098L21.122 10.6388L21.3373 11.4992L17.457 12.4702ZM21.5046 13.193C20.4087 14.7995 17.929 14.3567 17.457 12.4702L21.3373 11.4992C20.9714 10.037 19.0495 9.69375 18.2001 10.9389L21.5046 13.193ZM17.2298 13.5294C16.2838 14.6444 14.5489 14.5976 13.6643 13.4333L16.8493 11.0134C16.187 10.1417 14.8881 10.1067 14.1799 10.9414L17.2298 13.5294ZM16.2749 13.4048C15.2009 14.6706 13.1769 14.3979 12.4762 12.893L16.1024 11.2046C15.5716 10.0647 14.0385 9.85808 13.2249 10.8169L16.2749 13.4048ZM11.8634 9.04175C12.995 8.02181 14.7906 8.38718 15.4336 9.76823L11.8074 11.4566C12.2998 12.5142 13.6749 12.794 14.5415 12.013L11.8634 9.04175ZM11.0504 11.4457C11.7592 12.575 13.4311 12.4924 14.025 11.2986L10.4437 9.51692C11.2413 7.91374 13.4865 7.80269 14.4384 9.31934L11.0504 11.4457ZM25.124 13.3317C24.1157 14.8016 21.9589 14.8384 20.901 13.4038L24.1203 11.0298C23.5454 10.2502 22.3734 10.2702 21.8254 11.069L25.124 13.3317ZM23.118 13.4782C22.1454 14.8961 20.085 14.986 18.9926 13.6583L22.0814 11.1168C21.4824 10.3888 20.3528 10.4381 19.8195 11.2155L23.118 13.4782ZM54.3839 19.186C53.5188 19.01 52.8139 18.3846 52.5362 17.5465L56.3331 16.2882C56.16 15.7659 55.7207 15.3761 55.1815 15.2664L54.3839 19.186ZM55.4272 17.6153C55.331 17.8665 55.194 18.1011 55.0212 18.309L51.9447 15.7526C51.8369 15.8823 51.7518 16.0281 51.692 16.1843L55.4272 17.6153ZM51.0598 18.1706C51.6747 19.1607 53.0789 19.2575 53.8238 18.3611L50.7473 15.8047C51.7474 14.6012 53.6326 14.7311 54.458 16.0605L51.0598 18.1706ZM54.4907 16.1132C53.892 15.149 52.5246 15.0547 51.7992 15.9277L54.8757 18.4841C53.8561 19.7111 51.9341 19.5786 51.0926 18.2233L54.4907 16.1132ZM50.0903 18.0936C50.4234 18.5285 50.9543 18.7647 51.5003 18.7209L51.1806 14.7337C51.9882 14.669 52.7734 15.0184 53.266 15.6615L50.0903 18.0936ZM48.937 16.8083C49.4999 18.3236 51.65 18.3037 52.1849 16.7783L48.4102 15.4548C49.1144 13.4464 51.9454 13.4202 52.6866 15.4153L48.937 16.8083ZM52.8222 15.7802C52.5707 15.1034 51.9003 14.676 51.1806 14.7337L51.5003 18.7209C50.436 18.8063 49.4444 18.1742 49.0726 17.1733L52.8222 15.7802ZM47.9217 16.8532C48.4891 18.3805 50.6562 18.3604 51.1953 16.823L47.4206 15.4995C48.1205 13.5031 50.9345 13.4771 51.6713 15.4602L47.9217 16.8532ZM48.9542 18.9251C49.5904 18.8741 50.1368 18.4529 50.348 17.8505L46.5733 16.527C46.8856 15.6363 47.6936 15.0134 48.6345 14.9379L48.9542 18.9251ZM48.6345 14.9379C47.9982 14.9889 47.4519 15.4102 47.2407 16.0125L51.0154 17.336C50.7031 18.2267 49.8951 18.8497 48.9542 18.9251L48.6345 14.9379ZM44.6678 16.8831C44.7699 17.2224 44.9958 17.5111 45.3007 17.6917L47.3398 14.2505C47.8979 14.5812 48.3113 15.1095 48.4982 15.7306L44.6678 16.8831ZM45.7919 17.8415C46.2603 19.3982 48.403 19.5539 49.0916 18.0814L45.4682 16.387C46.3351 14.5332 49.0327 14.7293 49.6223 16.689L45.7919 17.8415ZM49.0916 18.0814C48.2247 19.9353 45.5271 19.7391 44.9375 17.7794L48.7679 16.6269C48.2995 15.0703 46.1568 14.9145 45.4682 16.387L49.0916 18.0814ZM43.7578 15.2472C44.2261 16.8039 46.3689 16.9597 47.0574 15.4871L43.434 13.7928C44.3009 11.9389 46.9985 12.135 47.5881 14.0948L43.7578 15.2472ZM42.822 14.9148C43.2618 16.3767 45.2741 16.523 45.9208 15.1401L42.2974 13.4458C43.2062 11.5022 46.0342 11.7079 46.6524 13.7624L42.822 14.9148ZM38.8892 16.0692C38.4073 16.7892 37.6376 17.2657 36.7782 17.376L36.2688 13.4086C35.9824 13.4453 35.7258 13.6042 35.5652 13.8442L38.8892 16.0692ZM35.0393 16.6828C33.8373 18.0114 31.6935 17.8017 30.7716 16.2654L34.2016 14.2073C33.7418 13.4411 32.6727 13.3366 32.0732 13.9992L35.0393 16.6828ZM33.0818 16.229C32.0789 17.7013 29.9236 17.7455 28.8611 16.3156L32.0718 13.93C31.4939 13.1521 30.3215 13.1762 29.776 13.977L33.0818 16.229ZM29.6026 16.4869C28.6202 16.5469 27.6739 16.1067 27.0869 15.3166L30.2976 12.931C30.0786 12.6362 29.7255 12.472 29.3589 12.4943L29.6026 16.4869ZM28.5848 15.1755C27.2693 15.9702 25.5551 15.4445 24.9113 14.0489L28.5434 12.3733C28.1882 11.6033 27.2423 11.3132 26.5165 11.7517L28.5848 15.1755ZM26.41 13.7115C25.4694 14.2797 24.2756 14.2079 23.4099 13.5311L25.8736 10.3799C25.4316 10.0343 24.822 9.99761 24.3417 10.2878L26.41 13.7115ZM19.8974 11.102C20.9057 9.63209 23.0624 9.59524 24.1203 11.0298L20.901 13.4038C21.4759 14.1834 22.648 14.1634 23.1959 13.3646L19.8974 11.102ZM17.9383 8.70245C19.3506 8.36769 20.7697 9.23075 21.122 10.6388L17.2417 11.6098C17.4209 12.3259 18.1425 12.7649 18.8608 12.5946L17.9383 8.70245ZM19.297 13.1811C18.5844 15.296 15.6982 15.5557 14.6196 13.602L18.1214 11.6687C17.5183 10.5764 15.9047 10.7216 15.5063 11.904L19.297 13.1811ZM13.2249 10.8169C14.1662 9.70751 15.8924 9.75403 16.7726 10.9125L13.5876 13.3324C14.2543 14.2099 15.5619 14.2451 16.2749 13.4048L13.2249 10.8169ZM14.4941 9.40815C13.9213 8.49548 12.6638 8.32033 11.8634 9.04175L14.5415 12.013C13.4963 12.955 11.8541 12.7263 11.1061 11.5345L14.4941 9.40815ZM9.57468 10.5718C9.97984 11.4269 11.1204 11.6028 11.7643 10.9093L8.83312 8.18754C10.1142 6.80793 12.3834 7.15777 13.1895 8.85915L9.57468 10.5718ZM10.3592 11.9604C9.30221 12.5127 8.00888 12.314 7.16639 11.4699L9.99757 8.64424C9.60416 8.25006 9.00023 8.15729 8.50665 8.41522L10.3592 11.9604ZM9.17274 11.2087C8.10697 12.7959 5.76381 12.771 4.73197 11.1615L8.09936 9.00268C7.57716 8.18815 6.3913 8.17556 5.85193 8.97882L9.17274 11.2087ZM2.07027 8.79595C2.47227 9.13369 3.04184 9.18598 3.49862 8.92709L1.52626 5.44718C2.52307 4.8822 3.76603 4.99632 4.6433 5.73335L2.07027 8.79595ZM3.41549 8.52468C3.76809 9.34344 4.78922 9.62359 5.51027 9.0994L3.15819 5.86401C4.51134 4.88029 6.42759 5.40603 7.08929 6.94254L3.41549 8.52468ZM3.49862 8.92709C2.34764 9.57945 0.895027 9.31731 0.0446739 8.3038L3.10898 5.73279C2.71931 5.26837 2.05368 5.14825 1.52626 5.44718L3.49862 8.92709ZM7.7575 8.49414C7.73594 8.44407 7.71032 8.39585 7.6809 8.34996L4.31351 10.5088C4.22524 10.3711 4.14838 10.2265 4.0837 10.0763L7.7575 8.49414ZM51.692 16.1843C52.5108 14.0469 55.5962 14.0647 56.3331 16.2882L52.5362 17.5465C52.9986 18.9419 54.9205 18.9379 55.4272 17.6153L51.692 16.1843ZM51.6713 15.4602C51.1039 13.933 48.9368 13.953 48.3977 15.4904L52.1724 16.8139C51.4724 18.8103 48.6584 18.8363 47.9217 16.8532L51.6713 15.4602ZM35.6917 13.6551C36.758 12.0622 39.0625 11.9585 40.2675 13.4492L37.1567 15.9637C37.6463 16.5694 38.5826 16.5273 39.0158 15.8801L35.6917 13.6551ZM32.1546 13.9092C32.8569 13.1329 33.9381 12.821 34.9459 13.1039L33.8651 16.9551C34.3185 17.0823 34.8048 16.942 35.1207 16.5928L32.1546 13.9092ZM29.3928 12.4923C30.3541 12.4336 31.28 12.8643 31.8544 13.6373L28.6436 16.0229C28.8753 16.3348 29.2488 16.5085 29.6366 16.4848L29.3928 12.4923ZM24.3417 10.2878C25.693 9.47143 27.4539 10.0115 28.1152 11.445L24.483 13.1206C24.8207 13.8526 25.7199 14.1284 26.41 13.7115L24.3417 10.2878ZM15.9932 10.459C16.2882 9.58324 17.014 8.92154 17.9131 8.70841L18.8357 12.6006C19.2797 12.4953 19.6381 12.1686 19.7838 11.7361L15.9932 10.459ZM8.89896 8.21021C8.78725 8.26858 8.68635 8.34561 8.60059 8.43796L11.5318 11.1598C11.3075 11.4013 11.0436 11.6027 10.7515 11.7553L8.89896 8.21021ZM-2 6.67479C-2 4.28564 0.983719 3.19975 2.51933 5.03001L-0.544975 7.60101C0.319778 8.63169 2 8.02019 2 6.67479H-2ZM5.51027 9.0994C4.54054 9.80437 3.21522 9.75787 2.29728 8.98667L4.87031 5.92407C4.38116 5.51312 3.67493 5.48834 3.15819 5.86401L5.51027 9.0994ZM5.85193 8.97882C6.78481 7.58953 8.75453 7.39877 9.93667 8.58322L7.10549 11.4089C7.70376 12.0083 8.70061 11.9118 9.17274 11.2087L5.85193 8.97882ZM13.5151 9.54638C12.9049 8.25845 11.0785 8.24093 10.4437 9.51692L14.025 11.2986C13.1725 13.0122 10.7197 12.9886 9.90028 11.259L13.5151 9.54638ZM14.4248 13.2491C15.0041 14.2984 16.4544 14.4433 17.2298 13.5294L14.1799 10.9414C15.2157 9.72072 17.1528 9.91429 17.9266 11.3158L14.4248 13.2491ZM18.713 13.3185C19.4528 14.2176 20.8485 14.1548 21.5046 13.193L18.2001 10.9389C19.0466 9.69797 20.8474 9.61701 21.8018 10.777L18.713 13.3185ZM23.352 13.4858C23.9398 13.9453 24.7933 13.8137 25.2153 13.1985L21.9168 10.9358C22.7999 9.64852 24.5859 9.37311 25.8157 10.3346L23.352 13.4858ZM26.5165 11.7517C27.6535 11.0649 29.1262 11.3545 29.9185 12.4207L26.7077 14.8063C27.1449 15.3947 27.9575 15.5545 28.5848 15.1755L26.5165 11.7517ZM29.776 13.977C30.8404 12.4145 33.166 12.4814 34.1387 14.1026L30.7088 16.1607C31.2379 17.0425 32.5029 17.0789 33.0818 16.229L29.776 13.977ZM36.3019 13.4844C36.1726 13.4481 36.0374 13.4383 35.9043 13.4554L36.4137 17.4228C36.0143 17.4741 35.6087 17.4444 35.221 17.3356L36.3019 13.4844ZM39.2988 13.0195C40.3005 12.8909 41.2946 13.3072 41.9059 14.1112L38.7216 16.532C38.9764 16.8671 39.3907 17.0406 39.8082 16.987L39.2988 13.0195ZM46.7337 14.0327C46.2653 12.476 44.1226 12.3202 43.434 13.7928L47.0574 15.4871C46.1905 17.341 43.493 17.1449 42.9033 15.1851L46.7337 14.0327ZM42.2921 13.4989C42.2486 13.564 42.2101 13.6324 42.1769 13.7033L45.8004 15.3977C45.7482 15.5093 45.6876 15.6168 45.6192 15.7193L42.2921 13.4989ZM45.1035 16.4921C44.1191 17.9672 41.9747 18.0332 40.9015 16.6215L44.0857 14.2007C43.4959 13.4248 42.3173 13.4611 41.7763 14.2718L45.1035 16.4921ZM49.6834 16.892C49.2121 15.3254 47.012 15.276 46.4707 16.8197L50.2454 18.1433C49.5053 20.2539 46.4974 20.1862 45.853 18.0445L49.6834 16.892ZM47.8578 14.9911C47.7557 14.6517 47.5298 14.3631 47.2249 14.1824L45.1858 17.6237C44.6278 17.293 44.2143 16.7647 44.0274 16.1435L47.8578 14.9911ZM43.17 16.6116C42.1656 18.1167 39.9776 18.1841 38.8825 16.7437L42.0668 14.3228C41.4987 13.5757 40.3638 13.6106 39.8428 14.3913L43.17 16.6116ZM53.4163 15.8577C52.7498 14.9876 51.4478 14.9617 50.7473 15.8047L53.8238 18.3611C52.8833 19.4929 51.1353 19.4581 50.2406 18.2898L53.4163 15.8577ZM39.8837 14.3301C40.8681 12.855 43.0125 12.7889 44.0857 14.2007L40.9015 16.6215C41.4913 17.3974 42.6699 17.3611 43.2109 16.5504L39.8837 14.3301ZM39.731 16.9969C38.7517 17.1226 37.7773 16.7315 37.1567 15.9637L40.2675 13.4492C40.0154 13.1373 39.6195 12.9784 39.2216 13.0295L39.731 16.9969ZM54 17.9776C54 18.6354 54.4631 19.2022 55.1076 19.3333L55.9052 15.4137C57.1242 15.6617 58 16.7337 58 17.9776H54Z" fill="#EF4444" mask="url(#path-2-outside-1_74_8900)"/>
</g>
<defs>
<clipPath id="clip0_74_8900">
<rect width="56" height="20" fill="white"/>
</clipPath>
</defs>
</svg>
