<svg width="52" height="25" viewBox="0 0 52 25" fill="none" xmlns="http://www.w3.org/2000/svg">
<path fill-rule="evenodd" clip-rule="evenodd" d="M2.00098 13.7231C2.00098 13.7231 2.05149 13.7026 2.48097 13.1846C2.91044 12.6667 3.88094 11.8462 4.84092 12.6667C5.7609 13.4872 6.72088 17.5897 7.64086 18.8205C8.60084 20.0513 9.52082 18.4103 10.4808 17.5897C11.4008 16.7692 12.3608 16.7692 13.2807 14.7179C14.2407 12.6667 15.1607 8.5641 16.1207 8.15385C17.0407 7.74359 18.0006 11.0256 18.9606 12.2564C19.8806 13.4872 20.8406 12.6667 21.7606 11.8462C22.7205 11.0256 23.6405 10.2051 24.6005 11.4359C25.5205 12.6667 26.4805 15.9487 27.4004 16.359C28.3604 16.7692 29.2804 14.3077 30.2404 11.8462C31.1604 9.38462 32.1203 6.92308 33.0403 5.69231C34.0003 4.46154 34.9603 4.46154 35.8803 5.28205C36.8402 6.10256 37.7602 7.74359 38.7202 10.6154C39.6402 13.4872 40.6002 8.78689 41.5201 11.2484C42.4801 13.71 43.4001 14.5305 44.3601 11.2484C45.2801 7.96638 46.2401 9.38462 47.16 5.69231C48.12 2 49.04 2 49.52 2H50V24.1538H49.52C49.04 24.1538 48.12 24.1538 47.16 24.1538C46.2401 24.1538 45.2801 24.1538 44.3601 24.1538C43.4001 24.1538 42.4801 24.1538 41.5201 24.1538C40.6002 24.1538 39.6402 24.1538 38.7202 24.1538C37.7602 24.1538 36.8402 24.1538 35.8803 24.1538C34.9603 24.1538 34.0003 24.1538 33.0403 24.1538C32.1203 24.1538 31.1604 24.1538 30.2404 24.1538C29.2804 24.1538 28.3604 24.1538 27.4004 24.1538C26.4805 24.1538 25.5205 24.1538 24.6005 24.1538C23.6405 24.1538 22.7205 24.1538 21.7606 24.1538C20.8406 24.1538 19.8806 24.1538 18.9606 24.1538C18.0006 24.1538 17.0407 24.1538 16.1207 24.1538C15.1607 24.1538 14.2407 24.1538 13.2807 24.1538C12.3608 24.1538 11.4008 24.1538 10.4808 24.1538C9.52082 24.1538 8.60084 24.1538 7.64086 24.1538C6.72088 24.1538 5.7609 24.1538 4.84092 24.1538C3.88094 24.1538 2.96096 24.1538 2.48097 24.1538H2.00098V13.7231Z" fill="#F0FDF4"/>
<path d="M2 13.6228L2.20011 13.3581C2.62973 12.8327 3.87996 11.8716 4.83994 12.6942C5.75992 13.5169 6.7199 17.63 7.63988 18.864C8.59986 20.0979 9.51984 18.4527 10.4798 17.63C11.3998 16.8074 12.3598 16.8074 13.2798 14.7508C14.2397 12.6942 15.1597 8.58107 16.1197 8.16975C17.0397 7.75843 17.9997 11.049 18.9596 12.2829C19.8796 13.5169 20.8396 12.6942 21.7596 11.8716C22.7196 11.049 23.6395 10.2263 24.5995 11.4603C25.5195 12.6942 26.4795 15.9848 27.3995 16.3961C28.3594 16.8074 29.2794 14.3395 30.2394 11.8716C31.1594 9.4037 32.1194 6.9358 33.0394 5.70185C33.9993 4.4679 34.9593 4.4679 35.8793 5.29053C36.8393 6.11317 37.7592 7.75843 38.7192 10.6377C39.6392 13.5169 40.5992 8.80443 41.5192 11.2723C42.4792 13.7402 43.3991 14.5629 44.3591 11.2723C45.2791 7.9818 46.2391 9.4037 47.1591 5.70185C48.119 2 49.039 2 49.519 2H49.999" stroke="#22C55E" stroke-width="3" stroke-linecap="round" stroke-linejoin="round"/>
</svg>
