<svg width="25" height="25" viewBox="0 0 25 25" fill="none" xmlns="http://www.w3.org/2000/svg">
<path d="M17.4844 11.5938C17.4844 12.5796 17.1921 13.5432 16.6444 14.3629C16.0967 15.1826 15.3182 15.8215 14.4074 16.1987C13.4967 16.576 12.4945 16.6747 11.5276 16.4824C10.5607 16.29 9.6726 15.8153 8.97552 15.1182C8.27844 14.4212 7.80373 13.533 7.6114 12.5662C7.41908 11.5993 7.51779 10.5971 7.89504 9.68631C8.2723 8.77554 8.91116 7.99708 9.73083 7.44939C10.5505 6.9017 11.5142 6.60938 12.5 6.60938C13.8215 6.61087 15.0884 7.13649 16.0228 8.07092C16.9573 9.00535 17.4829 10.2723 17.4844 11.5938ZM24.2813 12.5C24.2813 14.8301 23.5903 17.1079 22.2958 19.0453C21.0012 20.9827 19.1612 22.4928 17.0085 23.3845C14.8558 24.2761 12.4869 24.5095 10.2016 24.0549C7.91626 23.6003 5.81704 22.4782 4.1694 20.8306C2.52177 19.183 1.39971 17.0837 0.945129 14.7984C0.490547 12.5131 0.723855 10.1443 1.61555 7.99151C2.50724 5.83877 4.01728 3.99879 5.95469 2.70425C7.89211 1.40971 10.1699 0.71875 12.5 0.71875C15.6236 0.722049 18.6183 1.96434 20.827 4.17304C23.0357 6.38174 24.278 9.37643 24.2813 12.5ZM22.4688 12.5C22.4673 11.1582 22.1953 9.83051 21.6689 8.59628C21.1426 7.36205 20.3727 6.24664 19.4054 5.31676C18.4381 4.38688 17.2932 3.66163 16.0392 3.18439C14.7851 2.70714 13.4477 2.48769 12.1069 2.53918C6.77137 2.74535 2.51653 7.18937 2.53126 12.5283C2.53637 14.9588 3.43277 17.303 5.05063 19.1168C5.7095 18.1611 6.54644 17.3415 7.51563 16.7027C7.59826 16.6482 7.6965 16.6222 7.79531 16.6287C7.89412 16.6352 7.98807 16.674 8.06278 16.739C9.29435 17.8042 10.8683 18.3905 12.4966 18.3905C14.125 18.3905 15.6989 17.8042 16.9304 16.739C17.0051 16.674 17.0991 16.6352 17.1979 16.6287C17.2967 16.6222 17.395 16.6482 17.4776 16.7027C18.448 17.3412 19.2861 18.1608 19.946 19.1168C21.5718 17.2964 22.47 14.9407 22.4688 12.5Z" fill="white"/>
</svg>
