<svg width="41" height="41" viewBox="0 0 41 41" fill="none" xmlns="http://www.w3.org/2000/svg">
<path d="M27.5469 19.2188C27.5469 20.6125 27.1336 21.9749 26.3593 23.1338C25.5849 24.2926 24.4844 25.1959 23.1967 25.7292C21.9091 26.2626 20.4922 26.4021 19.1252 26.1302C17.7583 25.8583 16.5026 25.1872 15.5171 24.2016C14.5316 23.2161 13.8604 21.9605 13.5885 20.5935C13.3166 19.2266 13.4562 17.8097 13.9895 16.522C14.5229 15.2344 15.4261 14.1338 16.585 13.3595C17.7438 12.5852 19.1063 12.1719 20.5 12.1719C22.3683 12.174 24.1595 12.9171 25.4806 14.2382C26.8016 15.5593 27.5448 17.3505 27.5469 19.2188ZM37.1563 20.5C37.1563 23.7943 36.1794 27.0146 34.3492 29.7537C32.519 32.4928 29.9176 34.6277 26.8741 35.8884C23.8305 37.149 20.4815 37.4789 17.2505 36.8362C14.0195 36.1935 11.0517 34.6072 8.72226 32.2777C6.39284 29.9483 4.80649 26.9805 4.1638 23.7495C3.52112 20.5185 3.85097 17.1695 5.11164 14.1259C6.37231 11.0824 8.50718 8.48105 11.2463 6.65083C13.9854 4.82062 17.2057 3.84375 20.5 3.84375C24.9161 3.84841 29.15 5.60476 32.2726 8.7274C35.3952 11.85 37.1516 16.0839 37.1563 20.5ZM34.5938 20.5C34.5917 18.603 34.2071 16.7259 33.463 14.9809C32.7188 13.236 31.6304 11.659 30.2628 10.3444C28.8952 9.02973 27.2766 8.00438 25.5036 7.32965C23.7307 6.65492 21.8399 6.34467 19.9443 6.41746C12.4009 6.70895 6.38544 12.9919 6.40626 20.54C6.41349 23.9762 7.68082 27.2904 9.96813 29.8547C10.8996 28.5037 12.0829 27.3449 13.4531 26.4418C13.57 26.3646 13.7088 26.3279 13.8485 26.3371C13.9882 26.3464 14.1211 26.4011 14.2267 26.493C15.9679 27.9991 18.1931 28.8279 20.4952 28.8279C22.7973 28.8279 25.0225 27.9991 26.7637 26.493C26.8693 26.4011 27.0022 26.3464 27.1419 26.3371C27.2816 26.3279 27.4204 26.3646 27.5373 26.4418C28.9092 27.3444 30.0942 28.5032 31.0271 29.8547C33.3257 27.2811 34.5955 23.9507 34.5938 20.5Z" fill="#535353"/>
</svg>
