<svg width="29" height="29" viewBox="0 0 29 29" fill="none" xmlns="http://www.w3.org/2000/svg">
<path d="M14.5 4.83334C15.7819 4.83334 17.0113 5.34257 17.9177 6.24899C18.8242 7.15542 19.3334 8.3848 19.3334 9.66668C19.3334 10.9486 18.8242 12.1779 17.9177 13.0844C17.0113 13.9908 15.7819 14.5 14.5 14.5C13.2182 14.5 11.9888 13.9908 11.0824 13.0844C10.1759 12.1779 9.66671 10.9486 9.66671 9.66668C9.66671 8.3848 10.1759 7.15542 11.0824 6.24899C11.9888 5.34257 13.2182 4.83334 14.5 4.83334ZM14.5 7.25001C13.8591 7.25001 13.2444 7.50462 12.7912 7.95784C12.338 8.41105 12.0834 9.02574 12.0834 9.66668C12.0834 10.3076 12.338 10.9223 12.7912 11.3755C13.2444 11.8287 13.8591 12.0833 14.5 12.0833C15.141 12.0833 15.7557 11.8287 16.2089 11.3755C16.6621 10.9223 16.9167 10.3076 16.9167 9.66668C16.9167 9.02574 16.6621 8.41105 16.2089 7.95784C15.7557 7.50462 15.141 7.25001 14.5 7.25001ZM14.5 15.7083C17.7263 15.7083 24.1667 17.3154 24.1667 20.5417V24.1667H4.83337V20.5417C4.83337 17.3154 11.2738 15.7083 14.5 15.7083ZM14.5 18.0042C10.9113 18.0042 7.12921 19.7683 7.12921 20.5417V21.8708H21.8709V20.5417C21.8709 19.7683 18.0888 18.0042 14.5 18.0042Z" fill="#535353"/>
</svg>
