<svg width="21" height="21" viewBox="0 0 21 21" fill="none" xmlns="http://www.w3.org/2000/svg">
<path d="M15.25 15.375V17.125H3V15.375C3 15.375 3 11.875 9.125 11.875C15.25 11.875 15.25 15.375 15.25 15.375ZM12.1875 7.06255C12.1875 6.45684 12.0079 5.86474 11.6714 5.36111C11.3349 4.85749 10.8566 4.46496 10.297 4.23317C9.73737 4.00137 9.1216 3.94072 8.52754 4.05889C7.93347 4.17706 7.38778 4.46873 6.95949 4.89703C6.53119 5.32533 6.23951 5.87102 6.12135 6.46508C6.00318 7.05915 6.06383 7.67491 6.29562 8.23451C6.52741 8.79411 6.91994 9.27241 7.42357 9.60892C7.92719 9.94543 8.51929 10.125 9.125 10.125C9.93723 10.125 10.7162 9.80239 11.2905 9.22806C11.8648 8.65373 12.1875 7.87477 12.1875 7.06255ZM15.1975 11.875C15.7354 12.2913 16.1756 12.8204 16.487 13.4251C16.7984 14.0298 16.9735 14.6954 17 15.375V17.125H20.5V15.375C20.5 15.375 20.5 12.1988 15.1975 11.875ZM14.375 4.00005C13.7727 3.99669 13.1837 4.17676 12.6862 4.5163C13.2178 5.25894 13.5035 6.1493 13.5035 7.06255C13.5035 7.9758 13.2178 8.86615 12.6862 9.6088C13.1837 9.94833 13.7727 10.1284 14.375 10.125C15.1872 10.125 15.9662 9.80239 16.5405 9.22806C17.1148 8.65373 17.4375 7.87477 17.4375 7.06255C17.4375 6.25032 17.1148 5.47136 16.5405 4.89703C15.9662 4.3227 15.1872 4.00005 14.375 4.00005Z" fill="#49A09D"/>
</svg>
