<svg width="16" height="18" viewBox="0 0 16 18" fill="none" xmlns="http://www.w3.org/2000/svg">
<path d="M2.16671 9.10413V12.2708C2.16671 12.9279 2.69712 13.4583 3.35421 13.4583C4.01129 13.4583 4.54171 12.9279 4.54171 12.2708V9.10413C4.54171 8.44705 4.01129 7.91663 3.35421 7.91663C2.69712 7.91663 2.16671 8.44705 2.16671 9.10413ZM6.91671 9.10413V12.2708C6.91671 12.9279 7.44712 13.4583 8.10421 13.4583C8.76129 13.4583 9.29171 12.9279 9.29171 12.2708V9.10413C9.29171 8.44705 8.76129 7.91663 8.10421 7.91663C7.44712 7.91663 6.91671 8.44705 6.91671 9.10413ZM1.77087 17.4166H14.4375C15.0946 17.4166 15.625 16.8862 15.625 16.2291C15.625 15.572 15.0946 15.0416 14.4375 15.0416H1.77087C1.11379 15.0416 0.583374 15.572 0.583374 16.2291C0.583374 16.8862 1.11379 17.4166 1.77087 17.4166ZM11.6667 9.10413V12.2708C11.6667 12.9279 12.1971 13.4583 12.8542 13.4583C13.5113 13.4583 14.0417 12.9279 14.0417 12.2708V9.10413C14.0417 8.44705 13.5113 7.91663 12.8542 7.91663C12.1971 7.91663 11.6667 8.44705 11.6667 9.10413ZM7.36796 1.17955L1.11379 4.47288C0.789207 4.63913 0.583374 4.97955 0.583374 5.34371C0.583374 5.88996 1.02671 6.3333 1.57296 6.3333H14.6434C15.1817 6.3333 15.625 5.88996 15.625 5.34371C15.625 4.97955 15.4192 4.63913 15.0946 4.47288L8.84046 1.17955C8.38129 0.934129 7.82712 0.934129 7.36796 1.17955Z" fill="black"/>
</svg>
