<svg width="16" height="16" viewBox="0 0 16 16" fill="none" xmlns="http://www.w3.org/2000/svg">
<path d="M7.99996 0.666626C8.97242 0.666626 9.90505 1.05293 10.5927 1.74057C11.2803 2.4282 11.6666 3.36083 11.6666 4.33329C11.6666 5.30575 11.2803 6.23838 10.5927 6.92602C9.90505 7.61365 8.97242 7.99996 7.99996 7.99996C7.0275 7.99996 6.09487 7.61365 5.40723 6.92602C4.7196 6.23838 4.33329 5.30575 4.33329 4.33329C4.33329 3.36083 4.7196 2.4282 5.40723 1.74057C6.09487 1.05293 7.0275 0.666626 7.99996 0.666626ZM7.99996 2.49996C7.51373 2.49996 7.04741 2.69311 6.7036 3.03693C6.35978 3.38075 6.16663 3.84706 6.16663 4.33329C6.16663 4.81952 6.35978 5.28584 6.7036 5.62965C7.04741 5.97347 7.51373 6.16663 7.99996 6.16663C8.48619 6.16663 8.95251 5.97347 9.29632 5.62965C9.64014 5.28584 9.83329 4.81952 9.83329 4.33329C9.83329 3.84706 9.64014 3.38075 9.29632 3.03693C8.95251 2.69311 8.48619 2.49996 7.99996 2.49996ZM7.99996 8.91663C10.4475 8.91663 15.3333 10.1358 15.3333 12.5833V15.3333H0.666626V12.5833C0.666626 10.1358 5.55246 8.91663 7.99996 8.91663ZM7.99996 10.6583C5.27746 10.6583 2.40829 11.9966 2.40829 12.5833V13.5916H13.5916V12.5833C13.5916 11.9966 10.7225 10.6583 7.99996 10.6583Z" fill="black"/>
</svg>
