<svg width="16" height="20" viewBox="0 0 16 20" fill="none" xmlns="http://www.w3.org/2000/svg">
<path d="M7.99996 4.49997V6.1408C7.99996 6.5533 8.49496 6.75497 8.77913 6.46163L11.3366 3.90413C11.52 3.7208 11.52 3.43663 11.3366 3.2533L8.77913 0.695799C8.49496 0.411633 7.99996 0.613299 7.99996 1.0258V2.66663C3.94829 2.66663 0.666626 5.9483 0.666626 9.99997C0.666626 10.9533 0.849959 11.87 1.18913 12.7041C1.43663 13.3183 2.22496 13.4833 2.69246 13.0158C2.93996 12.7683 3.04079 12.3925 2.90329 12.0625C2.63746 11.43 2.49996 10.7241 2.49996 9.99997C2.49996 6.9658 4.96579 4.49997 7.99996 4.49997ZM13.3075 6.98413C13.06 7.23163 12.9591 7.61663 13.0966 7.93747C13.3533 8.57913 13.5 9.2758 13.5 9.99997C13.5 13.0341 11.0341 15.5 7.99996 15.5V13.8591C7.99996 13.4466 7.50496 13.245 7.22079 13.5383L4.66329 16.0958C4.47996 16.2791 4.47996 16.5633 4.66329 16.7466L7.22079 19.3041C7.50496 19.5883 7.99996 19.3866 7.99996 18.9833V17.3333C12.0516 17.3333 15.3333 14.0516 15.3333 9.99997C15.3333 9.04663 15.15 8.12997 14.8108 7.2958C14.5633 6.68163 13.775 6.51663 13.3075 6.98413Z" fill="black"/>
</svg>
